<svg xmlns="http://www.w3.org/2000/svg" width="11.943" height="11.943" viewBox="0 0 11.943 11.943">
  <g id="Group_14831" transform="translate(3917.957 450.221)">
    <g id="plus_2_"  transform="translate(-3917.957 -450.221)">
      <path id="Path_8187" d="M5.971,11.943a5.971,5.971,0,1,1,5.971-5.971A5.978,5.978,0,0,1,5.971,11.943Zm0-11.2A5.225,5.225,0,1,0,11.2,5.971,5.231,5.231,0,0,0,5.971.746Zm0,0" fill="#5a99ef"/>
      <path id="Path_8188" d="M133.6,240.746h-5.225a.373.373,0,1,1,0-.746H133.6a.373.373,0,0,1,0,.746Zm0,0" transform="translate(-125.014 -234.402)" fill="#5a99ef"/>
      <path id="Path_8189" d="M240.373,133.971A.373.373,0,0,1,240,133.6v-5.225a.373.373,0,1,1,.746,0V133.6A.373.373,0,0,1,240.373,133.971Zm0,0" transform="translate(-234.402 -125.014)" fill="#5a99ef"/>
    </g>
  </g>
</svg>
