<svg xmlns="http://www.w3.org/2000/svg" width="87.087" height="85.161" viewBox="0 0 87.087 85.161">
  <defs>
    <linearGradient id="linear-gradient" x1="0.5" x2="0.5" y2="1">
      <stop offset="0" stop-color="#ff7f00"/>
      <stop offset="1" stop-color="#ff4b00"/>
    </linearGradient>
  </defs>
  <g id="Group_14747"  transform="translate(-783 -623)">
    <g id="Group_14746"  transform="translate(632 341)">
      <g id="Group_12707" >
        <g id="Group_12706"  transform="translate(151 282)">
          <path id="Path_7803"  d="M669.982,910.858c-.125-.148-.1-.767-.441-.242-.188.287-.049.791-.049,1.2,0,11.836-.02,23.673.028,35.509.005,1.3-.28,1.732-1.667,1.729q-31.623-.067-63.246,0c-1.344,0-1.715-.369-1.71-1.708.049-11.683.027-23.367.026-35.051v-1.737a2.2,2.2,0,0,0-.9,1.4q-2.911,7.034-5.8,14.076A2.627,2.627,0,0,1,593,927.291c-.538-.263-.2-.6-.09-.881.36-.948.754-1.884,1.14-2.823,2.508-6.1,5.045-12.192,7.5-18.315a2.1,2.1,0,0,1,2.331-1.576c3.145.078,3.136.011,3.756-3.162a18.591,18.591,0,0,1,.692-2.806c.652-1.786,1.184-3.245-.356-5.155-1.668-2.07-.322-5.073,2.308-6.22.74-.323.93-.572.779-1.421-1.546-8.639,4.992-15.582,13.658-14.515a1.364,1.364,0,0,0,1.576-.725,12.046,12.046,0,0,1,22.308,5.294,10.9,10.9,0,0,1-.984,5.787,2.222,2.222,0,0,0-.012,2.145c.807,1.582,1.553,3.2,2.256,4.827.319.74.731,1.058,1.514.769a.749.749,0,0,1,.293-.078c2.37.187,3.4-1.03,4.431-3.148,1.965-4.028,5.676-5.239,10.013-4.653.142.055.283.111.426.165,3.158,1.2,3.668.818,2.413,5.094-.915,3.119-3.249,4.919-6.4,5.911A16.843,16.843,0,0,1,665.412,897a11.239,11.239,0,0,1,.2,5.382c-.2,1.006,0,1.556,1.053,1.33,3.027-.648,4.146.983,5.117,3.563,2.32,6.164,4.967,12.2,7.44,18.311.206.509,1.021,1.121.235,1.681a2.648,2.648,0,0,1-3-.817c-1.325-3.181-2.626-6.373-3.943-9.558C671.672,914.875,670.823,912.868,669.982,910.858Z" transform="translate(-592.701 -863.89)" fill="#333"/>
          <path id="Path_7836"  d="M681.7,976.493q.022,13.162.052,26.324c0,1.007-.358,1.479-1.421,1.476q-11.184-.031-22.369,0c-1.132,0-1.518-.47-1.5-1.555.058-3.273.274-3.062-3.179-3.065-1.877,0-3.754.038-5.63-.01-1.186-.03-1.628.476-1.6,1.635.066,3.275.192,2.983-3.089,2.982q-10.347,0-20.695-.041a2.279,2.279,0,0,1-.68-1.927c-.035-8.4-.047-16.8.012-25.2,0-.677-.089-1.468.775-1.811q2.043,4.362,4.082,8.725a3.976,3.976,0,0,0,.819,1.422,3.017,3.017,0,0,0,2.256.688q22.381.037,44.762.02a2.986,2.986,0,0,0,2.976-1.917c.982-2.118,1.926-4.252,2.9-6.374C680.467,977.218,680.645,976.345,681.7,976.493Z" transform="translate(-607.742 -921.965)" fill="#ff7f00"/>
          <path id="Path_7837"  d="M682.279,955.385c-2.125,5.263-4.62,10.362-6.935,15.54-.436.974-1.227.913-2.038.913q-10.567,0-21.134,0-10.111,0-20.222-.021a5.252,5.252,0,0,1-1.573-2.113c-1.9-4.212-3.889-8.383-5.7-12.635-.752-1.769-.408-2.287,1.512-2.411.405-.026.812-.026,1.218-.026q26.053-.009,52.105.021C680.462,954.656,681.6,954.265,682.279,955.385Z" transform="translate(-609.178 -911.166)" fill="url(#linear-gradient)"/>
          <path id="Path_7838"  d="M666.134,873.837c2.378,1.212,3.255,5.528,2.663,8.169a4.266,4.266,0,0,1-.572,1.719c-1.316,1.636-.8,3.118.075,4.719.826,1.51,1.445,3.132,2.209,4.678a1.15,1.15,0,0,1-.321,1.68,11.41,11.41,0,0,0-4.267,11.913c.189.909-.057,1.2-.938,1.2q-5.862-.026-11.724,0c-.9.005-1.258-.412-1.365-1.255a25.988,25.988,0,0,0-1.849-7.2c-.284-.648-.032-1.007.4-1.443a4.319,4.319,0,0,0,1.093-4.89,4.459,4.459,0,0,0-4.365-2.985c-2.79-.065-5.582-.041-8.374-.034-.775,0-1.437-.092-1.525-1.052a15.731,15.731,0,0,1,.265-3.765,9.637,9.637,0,0,1,11.875-6.563c1.353.425,1.814.2,2.386-1.091C654.288,871.994,661.482,870,666.134,873.837Z" transform="translate(-615.933 -868.043)" fill="#e8b874"/>
          <path id="Path_7839"  d="M715.613,922.052c3.838.71,6.465,6.776,5.034,10.545-.487,1.284-1.44,1.313-2.439,1.319-3.96.023-7.92-.006-11.88-.016l-1.52,0c-2.028-3.326-.219-8.336,3.053-10.661A8.617,8.617,0,0,1,715.613,922.052Z" transform="translate(-650.69 -893.986)" fill="#e40513"/>
          <path id="Path_7840"  d="M680.234,954.558q-28.009-.016-56.019-.053c-1.331,0-1.435.374-.92,1.48,2.035,4.368,4.015,8.762,6,13.154a3.6,3.6,0,0,1,.609,1.853c-1.116.2-1.707-.249-2.177-1.315-2.25-5.107-4.6-10.171-6.9-15.252-.165-.362-.291-.742-.435-1.114.406-.455.891-.271,1.308-.271q28.867-.02,57.735-.015C681.089,953.025,681.089,953.038,680.234,954.558Z" transform="translate(-607.133 -910.339)" fill="#f2f2f2"/>
          <path id="Path_7841"  d="M687.924,973.3c-1.371,3-2.782,5.984-4.092,9.011a2.033,2.033,0,0,1-2.148,1.456q-23.089-.052-46.178,0c-1.14,0-1.881-.271-2.007-1.5,15.46-.007,30.92-.033,46.38.014a2.358,2.358,0,0,0,2.59-1.669,125.6,125.6,0,0,1,5.456-11.428Z" transform="translate(-613.967 -918.771)" fill="#f2f2f2"/>
          <path id="Path_7842"  d="M642.954,931.261a23.876,23.876,0,0,1,1.761,6.4c.152.8-.194,1.114-.974,1.115q-6.906.014-13.813.051c-.956,0-1.172-.418-.75-1.238.864-.086.924-.834,1.129-1.424.4-1.142.736-2.3,1.174-3.432a2.281,2.281,0,0,1,2.416-1.615C636.916,931.172,639.938,931.02,642.954,931.261Z" transform="translate(-611.607 -898.932)" fill="#70cbf5"/>
          <path id="Path_7843"  d="M665.735,872.8c-1.687-.5-3.28-1.273-5.132-1.241a9.186,9.186,0,0,0-8.935,6.3c-.291.82-.47,1.286-1.562.92-6.524-2.189-12.1,1.386-12.973,8.224a8.18,8.18,0,0,1-.261,1.017,8.81,8.81,0,0,1,2.766-9.389,8.688,8.688,0,0,1,9.647-1.567c1.036.428,1.132-.053,1.4-.809a9.142,9.142,0,0,1,14.014-4.659C665.125,871.9,665.725,872.112,665.735,872.8Z" transform="translate(-615.534 -867.006)" fill="#efefef"/>
          <path id="Path_7844"  d="M621.517,972.049q-.037,10.2-.074,20.405-.016,4.264-.033,8.529c-.889.123-1.5.106-1.5-1.154.047-10.045.027-20.09.031-30.135a.8.8,0,0,1,.336-.639Z" transform="translate(-606.885 -918.706)" fill="#f0f0f0"/>
          <path id="Path_7845"  d="M643.178,930.479c-.387.745-1.1.61-1.737.615-2.324.014-4.65.054-6.972-.012a1.967,1.967,0,0,0-2.227,1.581c-.381,1.361-.77,2.718-1.161,4.076-.126.44-.235.914-.819.948-.607.035-.725-.435-.86-.877a23.311,23.311,0,0,1,1.477-6.006,1.55,1.55,0,0,1,1.672-1.183c3.081.045,6.164.025,9.245.011C642.457,929.628,643.012,929.715,643.178,930.479Z" transform="translate(-611.831 -898.151)" fill="#efefef"/>
          <path id="Path_7846"  d="M714.752,921.442c-.16.255-.378.246-.651.2a8.831,8.831,0,0,0-10.193,10,2.948,2.948,0,0,1,.039,1.641,1.259,1.259,0,0,1-1.11-.872c-1.224-2.873-.288-6.953,2.189-9.392a8.8,8.8,0,0,1,9.28-1.968A2.05,2.05,0,0,1,714.752,921.442Z" transform="translate(-649.829 -893.375)" fill="#f3f3f3"/>
          <path id="Path_7847"  d="M645.491,918.132c.342,1.244-.231,2.126-1.4,2.149-4.238.084-8.48.008-12.721-.025-.177,0-.353-.175-.53-.268.019-1.715.3-2.156,1.772-2.2,3.8-.117,7.608-.106,11.411-.007A6.658,6.658,0,0,1,645.491,918.132Z" transform="translate(-612.583 -891.939)" fill="#c3c3c3"/>
          <path id="Path_7848"  d="M644.731,917.283a3.2,3.2,0,0,1-1.915.335c-3.246,0-6.492.055-9.736-.025a2.838,2.838,0,0,0-3,1.547,1.563,1.563,0,0,1-.545-2.012,1.734,1.734,0,0,1,1.834-1.054c3.835.007,7.67,0,11.5,0A1.644,1.644,0,0,1,644.731,917.283Z" transform="translate(-611.823 -891.09)" fill="#70cbf5"/>
          <path id="Path_7849"  d="M738.011,907c-1.6,3.469-4.484,4.974-7.608,3.969-.608-.886.119-1.492.5-2.125C732.32,906.482,736.005,905.546,738.011,907Z" transform="translate(-664.355 -885.999)" fill="#848484"/>
          <path id="Path_7850"  d="M737.359,906.04a18.593,18.593,0,0,0-3.155.135,5.559,5.559,0,0,0-4.453,3.834c-.783.038-.942-.334-.772-1.047.719-3.016,4.726-5.237,7.688-4.277C737.426,904.931,737.6,905.346,737.359,906.04Z" transform="translate(-663.702 -885.036)" fill="#f3f3f3"/>
        </g>
      </g>
    </g>
  </g>
</svg>
