<svg xmlns="http://www.w3.org/2000/svg" width="15.154" height="15.212" viewBox="0 0 15.154 15.212">
  <g id="Group_14836" data-name="Group 14836" transform="translate(3996.777 445.423)">
    <g id="telephone" transform="translate(-3996.777 -445.423)">
      <path id="Path_8121" data-name="Path 8121" d="M3.983,10.112a16.138,16.138,0,0,0,5.368,4.2,8.354,8.354,0,0,0,3,.889c.072,0,.142.006.214.006a2.488,2.488,0,0,0,1.929-.829.069.069,0,0,0,.013-.016,8.122,8.122,0,0,1,.608-.63c.148-.142.3-.29.444-.441a1.522,1.522,0,0,0-.006-2.266L13.662,9.135a1.533,1.533,0,0,0-1.11-.511,1.585,1.585,0,0,0-1.122.507L10.3,10.26c-.1-.06-.211-.113-.312-.164a3.9,3.9,0,0,1-.347-.189,11.943,11.943,0,0,1-2.853-2.6,6.877,6.877,0,0,1-.965-1.538c.3-.268.574-.548.842-.823.095-.1.192-.2.29-.293a1.616,1.616,0,0,0,.523-1.135,1.6,1.6,0,0,0-.523-1.135l-.939-.939c-.11-.11-.214-.217-.322-.328C5.489.9,5.272.684,5.057.485A1.571,1.571,0,0,0,3.948,0,1.618,1.618,0,0,0,2.826.489L1.647,1.667A2.422,2.422,0,0,0,.925,3.218,5.834,5.834,0,0,0,1.363,5.74,14.67,14.67,0,0,0,3.983,10.112ZM1.694,3.284a1.667,1.667,0,0,1,.5-1.072L3.368,1.04a.849.849,0,0,1,.58-.268.805.805,0,0,1,.567.274c.211.2.41.4.624.618.107.11.217.221.328.334l.939.939a.856.856,0,0,1,.3.589.856.856,0,0,1-.3.589c-.1.1-.2.2-.293.3-.293.3-.567.577-.87.845l-.016.016a.616.616,0,0,0-.158.7c0,.009.006.016.009.025A7.418,7.418,0,0,0,6.186,7.8a12.6,12.6,0,0,0,3.039,2.767,4.512,4.512,0,0,0,.416.227,3.9,3.9,0,0,1,.347.189l.035.019a.659.659,0,0,0,.306.079.669.669,0,0,0,.47-.214l1.179-1.179a.834.834,0,0,1,.577-.281.792.792,0,0,1,.558.281l1.9,1.9A.76.76,0,0,1,15,12.772c-.132.142-.271.277-.419.419a9.077,9.077,0,0,0-.659.684,1.731,1.731,0,0,1-1.352.574c-.054,0-.11,0-.164-.006a7.59,7.59,0,0,1-2.717-.813,15.331,15.331,0,0,1-5.109-4,14.042,14.042,0,0,1-2.49-4.145A5.084,5.084,0,0,1,1.694,3.284Z" transform="translate(-0.912 0)" fill="#ff7200"/>
    </g>
  </g>
</svg>
