<svg xmlns="http://www.w3.org/2000/svg" width="15.091" height="17.246" viewBox="0 0 15.091 17.246">
  <defs>
    <linearGradient id="linear-gradient" x1="0.5" x2="0.5" y2="1">
      <stop offset="0" stop-color="#ff7f00"/>
      <stop offset="1" stop-color="#ff4b00"/>
    </linearGradient>
  </defs>
  <g id="Group_14819" transform="translate(3717 784)">
    <g id="password" transform="translate(-3717 -784)">
      <g id="Group_113"  transform="translate(0)">
        <g id="Group_112" >
          <ellipse id="Ellipse_11"  cx="0.674" cy="0.674" rx="0.674" ry="0.674" transform="translate(10.712 10.981)" fill="url(#linear-gradient)"/>
          <path id="Path_67"  d="M46.417,12.194a.674.674,0,0,0,.674-.674V9.027A2.7,2.7,0,0,0,44.4,6.333h-.81V3.957a4.043,4.043,0,0,0-8.084,0V6.333h-.807A2.7,2.7,0,0,0,32,9.027v5.524a2.7,2.7,0,0,0,2.695,2.695h9.7a2.7,2.7,0,0,0,2.695-2.695.674.674,0,0,0-1.347,0A1.349,1.349,0,0,1,44.4,15.9h-9.7a1.349,1.349,0,0,1-1.347-1.347V9.027A1.349,1.349,0,0,1,34.695,7.68h9.7a1.349,1.349,0,0,1,1.347,1.347V11.52A.674.674,0,0,0,46.417,12.194ZM42.239,6.333H36.849V3.957a2.7,2.7,0,0,1,5.389,0Z" transform="translate(-32)" fill="url(#linear-gradient)"/>
          <ellipse id="Ellipse_12"  cx="0.674" cy="0.674" rx="0.674" ry="0.674" transform="translate(5.625 10.981)" fill="url(#linear-gradient)"/>
          <ellipse id="Ellipse_13"  cx="0.674" cy="0.674" rx="0.674" ry="0.674" transform="translate(3.099 10.981)" fill="url(#linear-gradient)"/>
          <ellipse id="Ellipse_14"  cx="0.674" cy="0.674" rx="0.674" ry="0.674" transform="translate(8.152 10.981)" fill="url(#linear-gradient)"/>
        </g>
      </g>
    </g>
  </g>
</svg>
