<svg xmlns="http://www.w3.org/2000/svg" width="61.844" height="61.845" viewBox="0 0 61.844 61.845">
  <g id="Group_14783"  transform="translate(-52.858 -5.036)">
    <g id="Group_14784"  transform="translate(0 -44)">
      <g id="solidarity" transform="translate(50.858 47.036)">
        <path id="Path_8242"  d="M46.338,32.038V22.761a2.577,2.577,0,0,1,5.154,0V16.577a2.577,2.577,0,0,1,5.154,0v2.577a3.092,3.092,0,1,1,6.184,0V36.676L56.645,48.014l-8.069,8.069A4.122,4.122,0,0,0,47.369,59v4.476H35v-12.8a4.118,4.118,0,0,1,1.109-2.813l5.075-5.439V32.038a2.577,2.577,0,1,1,5.154,0Z" transform="translate(1.014 0.369)" fill="#fadfb2"/>
        <path id="Path_8243"  d="M18.492,32.038V22.761a2.577,2.577,0,0,0-5.154,0V16.577a2.577,2.577,0,0,0-5.154,0v2.577a3.092,3.092,0,1,0-6.184,0V36.676L8.184,48.014l8.069,8.069A4.124,4.124,0,0,1,17.461,59v4.478H29.83v-12.8a4.118,4.118,0,0,0-1.109-2.813l-5.075-5.439V32.038a2.577,2.577,0,1,0-5.154,0Z" transform="translate(0 0.369)" fill="#fadfb2"/>
        <path id="Path_8244"  d="M32.43,26.75l11.8-10.729a8.115,8.115,0,0,0-.771-12.593,7.8,7.8,0,0,0-9.558.434L32.43,5.1,30.964,3.862a7.8,7.8,0,0,0-9.558-.434,8.115,8.115,0,0,0-.771,12.593Z" transform="translate(0.492 0)" fill="#c66b60"/>
        <path id="Path_8245"  d="M42.52,6.044a17.283,17.283,0,0,0-.329-3.329A7.8,7.8,0,0,0,33.9,3.863L32.43,5.1,30.964,3.862a7.8,7.8,0,0,0-9.558-.434,8.115,8.115,0,0,0-.771,12.593l7.627,6.937A17.171,17.171,0,0,0,42.52,6.044Z" transform="translate(0.492 0)" fill="#e47c6e"/>
        <g id="Group_13616"  transform="translate(17.461 32.407)">
          <path id="Path_8246"  d="M17,31.5h2.061v4.847H17Z" transform="translate(-17 -31.5)" fill="#efbe9a"/>
        </g>
        <path id="Path_8247"  d="M13.183,37.289v-1.8a1.032,1.032,0,0,1,1.031-1.031h.135a1.037,1.037,0,0,1,.754.327l1.5-1.408a3.1,3.1,0,0,0-2.259-.98h-.135V22.608H12.153V33.2a3.08,3.08,0,0,0-.941,1.577l-2.15-2.739V19H7V32.4a1.035,1.035,0,0,0,.22.637l11.338,14.43,1.621-1.274Z" transform="translate(0.154 0.523)" fill="#efbe9a"/>
        <g id="Group_13617"  transform="translate(46.322 32.923)">
          <path id="Path_8248"  d="M45,32h2.061v4.847H45Z" transform="translate(-45 -32.001)" fill="#efbe9a"/>
        </g>
        <path id="Path_8249"  d="M51.209,37.29v-1.8a1.032,1.032,0,0,0-1.031-1.031h-.134a1.037,1.037,0,0,0-.755.327l-1.5-1.408a3.1,3.1,0,0,1,2.259-.98h.134V22.609h2.061v10.6a3.08,3.08,0,0,1,.941,1.577l2.151-2.739V19h2.061V32.4a1.035,1.035,0,0,1-.22.637L45.835,47.468l-1.621-1.274Z" transform="translate(1.298 0.523)" fill="#efbe9a"/>
      </g>
    </g>
  </g>
</svg>
