<svg xmlns="http://www.w3.org/2000/svg" width="55.098" height="55.098" viewBox="0 0 55.098 55.098">
  <g id="Group_14786"  transform="translate(3211.406 1125.142)">
    <g id="Group_14785"  transform="translate(-3211.406 -1125.142)">
      <g id="plus_2_"  transform="translate(0)">
        <path id="Path_8187" d="M27.549,55.1A27.549,27.549,0,1,1,55.1,27.549,27.58,27.58,0,0,1,27.549,55.1Zm0-51.655A24.105,24.105,0,1,0,51.655,27.549,24.132,24.132,0,0,0,27.549,3.444Zm0,0" fill="#ff7200"/>
        <path id="Path_8188" d="M153.827,243.444H129.722a1.722,1.722,0,0,1,0-3.444h24.105a1.722,1.722,0,1,1,0,3.444Zm0,0" transform="translate(-114.225 -214.173)" fill="#ff7200"/>
        <path id="Path_8189" d="M241.722,155.549A1.722,1.722,0,0,1,240,153.827V129.722a1.722,1.722,0,0,1,3.444,0v24.105A1.722,1.722,0,0,1,241.722,155.549Zm0,0" transform="translate(-214.173 -114.225)" fill="#ff7200"/>
      </g>
    </g>
  </g>
</svg>
