<svg xmlns="http://www.w3.org/2000/svg" width="85.747" height="76.164" viewBox="0 0 85.747 76.164">
  <g id="Group_14780"  transform="translate(822.919 52.514)">
    <g id="Group_14781"  transform="translate(-674 -145)">
      <g id="Group_13620"  transform="translate(25.142 20.486)">
        <g id="Group_14782"  transform="translate(-176 72)">
          <g id="fried-rice_1_"  transform="translate(1.94)">
            <path id="Path_7413"  d="M83.08,267.385l.28.234,0-.364v-.027a3.812,3.812,0,0,1,4.94-3.65l.339.105-.134-.328a3.8,3.8,0,0,1,1.089-4.366,6.556,6.556,0,0,0-10.5,6.91,6.391,6.391,0,0,1,3.991,1.487Z" transform="translate(-65.61 -218.403)" fill="#fd4755"/>
            <path id="Path_7414"  d="M83.072,267.164a6.556,6.556,0,0,1,4.018-9.487,6.556,6.556,0,0,0-8.05,8.052A6.521,6.521,0,0,1,83.072,267.164Z" transform="translate(-65.61 -218.403)" fill="#fb2b3a"/>
            <path id="Path_7415"  d="M48.964,316.931a3.81,3.81,0,0,1,3.152-5.95c.034,0,.067,0,.1,0l.07,0,.362.016-.223-.286a3.767,3.767,0,0,1-.8-2.148,6.555,6.555,0,0,0-9.934,8.359Z" transform="translate(-33.878 -259.57)" fill="#fdb441"/>
            <path id="Path_7416"  d="M44.859,316.763a6.551,6.551,0,0,1,5.652-9,6.555,6.555,0,0,0-8.919,9h3.267Z" transform="translate(-33.877 -259.57)" fill="#fe9901"/>
            <g id="Group_12318"  transform="translate(56.437 25.764)">
              <path id="Path_7417"  d="M336.985,191.338a3.769,3.769,0,0,1,.3,1.423l0,.337.266-.206a3.77,3.77,0,0,1,2.33-.8,3.8,3.8,0,0,1,3.6,5.051,1.916,1.916,0,0,1,.51-.431,1.989,1.989,0,0,1,1.008-.258,3.571,3.571,0,0,1,1.741.53l.219.126.031-.251c.3-2.479,1.6-4.278,3.087-4.278,1.07,0,2.06.922,2.648,2.466l.1.272.183-.226a6.916,6.916,0,0,1,.478-.531,6.418,6.418,0,0,1,2.632-1.616,2.126,2.126,0,0,0-.072-.537,3.036,3.036,0,0,0-2.343-1.947c1.629-2.086,2.04-4.47.858-5.652-.87-.87-2.392-.876-3.967-.169a7.37,7.37,0,0,0,.042-.773c0-3.155-1.992-5.713-4.45-5.713s-4.45,2.558-4.45,5.713a7.413,7.413,0,0,0,.04.762c-1.574-.706-3.1-.7-3.965.17-1.184,1.184-.77,3.573.865,5.661a3.954,3.954,0,0,0-1.691.879Z" transform="translate(-336.985 -178.154)" fill="#68ca44"/>
              <path id="Path_7418"  d="M386.314,226.644a7.63,7.63,0,0,1,.621-2.263V215.21a1.256,1.256,0,1,0-2.512,0v10.883A3.666,3.666,0,0,1,386.314,226.644Z" transform="translate(-376.478 -207.958)" fill="#80d261"/>
            </g>
            <g id="Group_12319"  transform="translate(62.725 40.023)">
              <path id="Path_7419"  d="M374.671,268.227l-.134.329.339-.105a3.812,3.812,0,0,1,4.94,3.639,3.77,3.77,0,0,1-.805,2.337l-.223.286.362-.016.07,0c.033,0,.067,0,.1,0a3.81,3.81,0,0,1,3.152,5.95h6.166a3.033,3.033,0,0,0-.364-2.72c2.52-.31,4.415-1.648,4.415-3.252,0-1.18-1.028-2.216-2.575-2.8a7.1,7.1,0,0,0,.553-.5c2.14-2.14,2.524-5.226.857-6.893s-4.753-1.283-6.893.857a7.059,7.059,0,0,0-.489.544c-.589-1.547-1.624-2.574-2.8-2.574-1.606,0-2.945,1.9-3.253,4.426a2.915,2.915,0,0,0-2.916-.272,2.043,2.043,0,0,0-.326.236A3.816,3.816,0,0,1,374.671,268.227Z" transform="translate(-374.536 -263.299)" fill="#017b4e"/>
              <path id="Path_7420"  d="M413.363,292.828a1.2,1.2,0,0,0-1.7,0l-6,6a3.962,3.962,0,0,1,2.324,1.084l5.385-5.385A1.2,1.2,0,0,0,413.363,292.828Z" transform="translate(-400.443 -287.589)" fill="#026841"/>
            </g>
            <g id="Group_12321"  transform="translate(41.148 0)">
              <path id="Path_7421"  d="M270.383,38.177a2,2,0,0,1,.308,1.729c-.324.866-1.52,1.362-3.281,1.362a14.178,14.178,0,0,1-4.79-.959A13.424,13.424,0,0,1,258,37.542c-1.069-1.05-1.5-2.056-1.206-2.834a2.409,2.409,0,0,1,2.018-1.261c-6.383-1.3-11.711-.259-12.882,2.872-1.473,3.936,4.183,9.69,12.633,12.851s16.493,2.533,17.965-1.4C277.579,44.96,275.007,41.232,270.383,38.177Z" transform="translate(-245.699 -31.464)" fill="#fff3de"/>
              <path id="Path_7422"  d="M251.961,37.29c.633-1.691,2.479-2.769,5.049-3.2a2.94,2.94,0,0,1,1.383-.711c-6.194-1.167-11.316-.11-12.461,2.952-1.473,3.936,4.183,9.69,12.632,12.851a30.613,30.613,0,0,0,9.261,1.992c-1.062-.282-2.143-.626-3.231-1.033-8.449-3.161-14.1-8.914-12.632-12.851Z" transform="translate(-245.698 -31.475)" fill="#fef0ae"/>
              <g id="Group_12320"  transform="translate(9.737)">
                <ellipse id="Ellipse_411"  cx="3.373" cy="7.585" rx="3.373" ry="7.585" transform="translate(0 6.32) rotate(-69.518)" fill="#fdb441"/>
              </g>
              <path id="Path_7423"  d="M320.4,42.706c-3.924-1.468-6.575-4.072-5.923-5.817.407-1.089,2.005-1.585,4.1-1.448-3.835-1.372-7.41-1.123-8.049.587-.653,1.745,2,4.349,5.923,5.817a14.964,14.964,0,0,0,4.184.947Z" transform="translate(-299.592 -32.843)" fill="#fe9901"/>
            </g>
            <g id="Group_12328"  transform="translate(14.261 35.335)">
              <g id="Group_12322"  transform="translate(0 0)">
                <path id="Path_7424"  d="M141.748,257.335a3.971,3.971,0,0,0-3.347-6.117c-.06,0-.118.006-.178.009a3.976,3.976,0,0,0-4.317-6.238,3.973,3.973,0,0,0-6.114-4.645,3.972,3.972,0,0,0-6.937-2.6,3.974,3.974,0,0,0-7.091-.472,3.974,3.974,0,0,0-7.091.472,3.972,3.972,0,0,0-6.937,2.6,3.974,3.974,0,0,0-6.114,4.645,3.974,3.974,0,0,0-4.317,6.238c-.059,0-.118-.009-.178-.009a3.971,3.971,0,0,0-3.347,6.117Z" transform="translate(-85.153 -235.31)" fill="#ea9b58"/>
              </g>
              <path id="Path_7425"  d="M130.225,239.506a3.956,3.956,0,0,0-2.433.836,3.972,3.972,0,0,0-6.937-2.6,3.974,3.974,0,0,0-7.091-.472,3.974,3.974,0,0,0-7.091.472,3.972,3.972,0,0,0-6.937,2.6,3.974,3.974,0,0,0-6.114,4.645,3.974,3.974,0,0,0-4.317,6.238c-.059,0-.118-.009-.178-.009a3.973,3.973,0,0,0-3.45,5.95H91.22a17.323,17.323,0,0,1,5.726-9.728,1.253,1.253,0,0,1-.05-.347,3.915,3.915,0,0,1,5.728-3.468,33.118,33.118,0,0,1,14.676-3.3,32.363,32.363,0,0,1,16.7,4.409,3.971,3.971,0,0,0-3.773-5.228Z" transform="translate(-85.151 -235.308)" fill="#d88a55"/>
              <g id="Group_12327"  transform="translate(11.746 5.827)">
                <g id="Group_12323"  transform="translate(0 2.044)">
                  <path id="Path_7426"  d="M156.54,287.476a1.256,1.256,0,0,1-1.256-1.256,3.913,3.913,0,0,1,7-2.409,1.256,1.256,0,1,1-1.979,1.547,1.4,1.4,0,0,0-2.506.861A1.256,1.256,0,0,1,156.54,287.476Z" transform="translate(-155.284 -282.307)" fill="#c57a44"/>
                </g>
                <g id="Group_12324"  transform="translate(12.876)">
                  <path id="Path_7427"  d="M238.173,275.273a1.256,1.256,0,0,1-1.256-1.256,1.4,1.4,0,0,0-2.506-.861,1.256,1.256,0,1,1-1.979-1.547,3.913,3.913,0,0,1,7,2.409A1.256,1.256,0,0,1,238.173,275.273Z" transform="translate(-232.165 -270.104)" fill="#c57a44"/>
                </g>
                <g id="Group_12325"  transform="translate(26.199 4.101)">
                  <path id="Path_7428"  d="M312.973,298.943a1.257,1.257,0,0,1-1.195-1.645,3.913,3.913,0,0,1,7.4-.13,1.256,1.256,0,1,1-2.361.859,1.4,1.4,0,0,0-2.649.048A1.257,1.257,0,0,1,312.973,298.943Z" transform="translate(-311.716 -294.591)" fill="#c57a44"/>
                </g>
                <g id="Group_12326"  transform="translate(8.192 8.182)">
                  <path id="Path_7429"  d="M205.457,323.311a1.257,1.257,0,0,1-1.195-1.645,3.913,3.913,0,0,1,7.4-.13,1.256,1.256,0,0,1-2.361.859,1.4,1.4,0,0,0-2.649.048A1.257,1.257,0,0,1,205.457,323.311Z" transform="translate(-204.2 -318.959)" fill="#c57a44"/>
                </g>
              </g>
            </g>
            <path id="Path_7430"  d="M56.927,398.807a34.287,34.287,0,0,0,16.091,13.11,4.343,4.343,0,0,0,1.674.337h31.152a4.344,4.344,0,0,0,1.674-.337,34.287,34.287,0,0,0,16.09-13.11Z" transform="translate(-47.393 -336.09)" fill="#d8ecfe"/>
            <path id="Path_7431"  d="M67.312,398.807H56.927a34.285,34.285,0,0,0,16.091,13.11,4.343,4.343,0,0,0,1.674.337H85.077a4.344,4.344,0,0,1-1.674-.337A34.286,34.286,0,0,1,67.312,398.807Z" transform="translate(-47.393 -336.09)" fill="#c4e2ff"/>
            <g id="Group_12329"  transform="translate(0 57.194)">
              <path id="Path_7432"  d="M83.159,371.515H2.588A2.588,2.588,0,0,1,0,368.927v-.515a2.588,2.588,0,0,1,2.588-2.588H83.159a2.588,2.588,0,0,1,2.588,2.588v.515a2.588,2.588,0,0,1-2.588,2.588Z" transform="translate(0 -365.824)" fill="#eaf6ff"/>
            </g>
            <g id="Group_12330"  transform="translate(0 57.194)">
              <path id="Path_7433"  d="M7.333,368.927v-.515a2.588,2.588,0,0,1,2.588-2.588H2.588A2.588,2.588,0,0,0,0,368.412v.515a2.588,2.588,0,0,0,2.588,2.588H9.921A2.588,2.588,0,0,1,7.333,368.927Z" transform="translate(0 -365.824)" fill="#d8ecfe"/>
            </g>
            <g id="Group_12331"  transform="translate(16.132 22.514)">
              <path id="Path_7434"  d="M97.839,165.656a5.179,5.179,0,0,0,6.516.659.864.864,0,0,0,.134-1.331l-5.979-5.979a.864.864,0,0,0-1.331.134A5.179,5.179,0,0,0,97.839,165.656Z" transform="translate(-96.322 -158.753)" fill="#fe9901"/>
            </g>
            <g id="Group_12332"  transform="translate(26.904 11.285)">
              <path id="Path_7435"  d="M167.951,97.955a.856.856,0,0,0,.631-.953,6.377,6.377,0,0,0-5.286-5.286.856.856,0,0,0-.953.631l-1.666,6.218a.863.863,0,0,0,1.057,1.057Z" transform="translate(-160.647 -91.705)" fill="#fb2b3a"/>
            </g>
            <g id="Group_12333"  transform="translate(10.352 3.694)">
              <path id="Path_7436"  d="M68.065,47.019a.856.856,0,0,0-.953-.631,6.377,6.377,0,0,0-5.286,5.286.856.856,0,0,0,.631.953l6.218,1.666a.863.863,0,0,0,1.057-1.057Z" transform="translate(-61.815 -46.377)" fill="#68ca44"/>
            </g>
          </g>
        </g>
      </g>
    </g>
  </g>
</svg>
