<svg id="Group_14812" data-name="Group 14812" xmlns="http://www.w3.org/2000/svg" width="11.106" height="14.276" viewBox="0 0 11.106 14.276">
  <g id="delete">
    <path id="Path_8179"  d="M126.326.862h2.386v.4h.862V.806a.806.806,0,0,0-.8-.806h-2.5a.806.806,0,0,0-.805.806v.458h.862Zm0,0" transform="translate(-121.966 0)" fill="#ef0f17"/>
    <path id="Path_8180"  d="M48.959,167.75H40.87a.379.379,0,0,0-.378.41l.676,8.362a.9.9,0,0,0,.895.826h5.7a.9.9,0,0,0,.895-.826l.676-8.362a.379.379,0,0,0-.378-.41Zm-6.13,8.707H42.8a.431.431,0,0,1-.43-.4l-.424-6.865a.431.431,0,0,1,.86-.053L43.232,176A.431.431,0,0,1,42.829,176.457Zm2.522-.43a.431.431,0,0,1-.862,0v-6.865a.431.431,0,0,1,.862,0Zm2.531-6.84-.4,6.865a.431.431,0,0,1-.43.405h-.026a.431.431,0,0,1-.4-.455l.4-6.865a.431.431,0,1,1,.86.051Zm0,0" transform="translate(-39.361 -163.073)" fill="#ef0f17"/>
    <path id="Path_8181"  d="M11.088,77.434l-.283-.848a.548.548,0,0,0-.52-.374H.821a.548.548,0,0,0-.52.374l-.283.848a.356.356,0,0,0,.337.468H10.751a.351.351,0,0,0,.188-.054.355.355,0,0,0,.149-.414Zm0,0" transform="translate(0 -74.086)" fill="#ef0f17"/>
  </g>
</svg>
