<svg xmlns="http://www.w3.org/2000/svg" width="7.101" height="7.101" viewBox="0 0 7.101 7.101">
  <g id="editing" transform="translate(0 0)">
    <path id="Path_7954" d="M5.756,83.926a.208.208,0,0,0-.208.208v3.051a.347.347,0,0,1-.347.347H.763a.347.347,0,0,1-.347-.347V82.747A.347.347,0,0,1,.763,82.4H3.814a.208.208,0,1,0,0-.416H.763A.764.764,0,0,0,0,82.747v4.438a.764.764,0,0,0,.763.763H5.2a.764.764,0,0,0,.763-.763V84.134A.208.208,0,0,0,5.756,83.926Z" transform="translate(0 -80.846)" fill="#3a3939"/>
    <path id="Path_7955" d="M183.631.535l-.392-.392a.486.486,0,0,0-.686,0l-3.138,3.138a.208.208,0,0,0-.057.106l-.2.981a.208.208,0,0,0,.245.245l.981-.2a.208.208,0,0,0,.106-.057l3.138-3.138h0a.486.486,0,0,0,0-.686Zm-3.388,3.486-.613.123.123-.613L182.307.976l.49.49ZM183.337.927l-.245.245-.49-.49.245-.245a.069.069,0,0,1,.1,0l.392.392A.069.069,0,0,1,183.337.927Z" transform="translate(-176.672 0)" fill="#3a3939"/>
  </g>
</svg>
