<svg xmlns="http://www.w3.org/2000/svg" width="16.844" height="10.736" viewBox="0 0 16.844 10.736">
  <defs>
    <linearGradient id="linear-gradient" x1="0.5" x2="0.5" y2="1">
      <stop offset="0" stop-color="#ff7f00"/>
      <stop offset="1" stop-color="#ff4b00"/>
    </linearGradient>
  </defs>
  <g id="Group_14789"  transform="translate(2383.957 1039.159)">
    <path id="Path_14089"  d="M16.737,97.875c-.15-.206-3.736-5.04-8.315-5.04S.257,97.669.107,97.875a.556.556,0,0,0,0,.655c.15.206,3.736,5.04,8.315,5.04s8.165-4.834,8.315-5.04A.555.555,0,0,0,16.737,97.875ZM8.422,102.46c-3.373,0-6.294-3.209-7.159-4.258.864-1.05,3.779-4.257,7.159-4.257s6.294,3.208,7.159,4.258C14.717,99.253,11.8,102.46,8.422,102.46Z" transform="translate(-2383.957 -1131.994)" fill="url(#linear-gradient)"/>
    <path id="Path_14090"  d="M158.054,154.725a3.332,3.332,0,1,0,3.332,3.332A3.336,3.336,0,0,0,158.054,154.725Zm0,5.553a2.221,2.221,0,1,1,2.221-2.221A2.224,2.224,0,0,1,158.054,160.278Z" transform="translate(-2533.588 -1191.848)" fill="url(#linear-gradient)"/>
  </g>
</svg>
