<svg xmlns="http://www.w3.org/2000/svg" width="17.666" height="14.648" viewBox="0 0 17.666 14.648">
  <g id="Group_14840" data-name="Group 14840" transform="translate(3495.296 772.535)">
    <g id="group" transform="translate(-3495.296 -816.264)">
      <g id="Group_13729" data-name="Group 13729" transform="translate(0 50.145)">
        <g id="Group_13728" data-name="Group 13728">
          <path id="Path_8327" data-name="Path 8327" d="M15.078,231.007H13.349a2.581,2.581,0,0,0-.68.091,2.59,2.59,0,0,0-2.308-1.419H7.3A2.59,2.59,0,0,0,5,231.1a2.581,2.581,0,0,0-.68-.091H2.588A2.591,2.591,0,0,0,0,233.6v2.764a1.554,1.554,0,0,0,1.553,1.553H16.114a1.554,1.554,0,0,0,1.553-1.553V233.6A2.591,2.591,0,0,0,15.078,231.007Zm-10.361,1.26v4.609H1.553a.518.518,0,0,1-.518-.518V233.6a1.554,1.554,0,0,1,1.553-1.553H4.317a1.547,1.547,0,0,1,.406.054C4.719,232.153,4.717,232.21,4.717,232.268Zm7.2,4.609H5.752v-4.609A1.554,1.554,0,0,1,7.3,230.715h3.057a1.554,1.554,0,0,1,1.553,1.553Zm4.717-.518a.518.518,0,0,1-.518.518H12.949v-4.609c0-.057,0-.114-.006-.171a1.549,1.549,0,0,1,.406-.054h1.729a1.554,1.554,0,0,1,1.553,1.553Z" transform="translate(0 -229.68)" fill="#686868"/>
        </g>
      </g>
      <g id="Group_13731" data-name="Group 13731" transform="translate(1.153 46.585)">
        <g id="Group_13730" data-name="Group 13730">
          <path id="Path_8328" data-name="Path 8328" d="M35.714,126.5a2.3,2.3,0,1,0,2.3,2.3A2.3,2.3,0,0,0,35.714,126.5Zm0,3.564a1.264,1.264,0,1,1,1.264-1.264A1.266,1.266,0,0,1,35.714,130.068Z" transform="translate(-33.414 -126.504)" fill="#686868"/>
        </g>
      </g>
      <g id="Group_13733" data-name="Group 13733" transform="translate(5.761 43.729)">
        <g id="Group_13732" data-name="Group 13732">
          <path id="Path_8329" data-name="Path 8329" d="M170.034,43.729a3.072,3.072,0,1,0,3.072,3.072A3.076,3.076,0,0,0,170.034,43.729Zm0,5.109a2.037,2.037,0,1,1,2.037-2.037A2.039,2.039,0,0,1,170.034,48.838Z" transform="translate(-166.962 -43.729)" fill="#686868"/>
        </g>
      </g>
      <g id="Group_13735" data-name="Group 13735" transform="translate(11.914 46.585)">
        <g id="Group_13734" data-name="Group 13734">
          <path id="Path_8330" data-name="Path 8330" d="M347.594,126.5a2.3,2.3,0,1,0,2.3,2.3A2.3,2.3,0,0,0,347.594,126.5Zm0,3.564a1.264,1.264,0,1,1,1.264-1.264A1.266,1.266,0,0,1,347.594,130.068Z" transform="translate(-345.294 -126.504)" fill="#686868"/>
        </g>
      </g>
    </g>
  </g>
</svg>
