<svg xmlns="http://www.w3.org/2000/svg" width="254.553" height="198.26" viewBox="0 0 254.553 198.26">
  <defs>
    <linearGradient id="linear-gradient" x1="0.5" x2="0.5" y2="1">
      <stop offset="0" stop-color="#ff7f00"/>
      <stop offset="1" stop-color="#ff4b00"/>
    </linearGradient>
  </defs>
  <g id="Group_13739"  transform="translate(-2093.723 -227.915)">
    <g id="Group_14751"  transform="translate(2034.233 163)">
      <path id="Path_7557"  d="M83.871,0a99.13,99.13,0,0,1,0,198.26c-54.748,0-155.423-19.2-155.423-73.951S29.123,0,83.871,0Z" transform="translate(131.042 64.915)" opacity="0.02" fill="url(#linear-gradient)"/>
      <g id="Group_12551"  transform="translate(102.007 83.691)">
        <g id="Group_3857" transform="translate(0 0)">
          <g id="Group_3839" transform="translate(49.637 85.598)">
            <path id="Path_4204"  d="M153.515,219.61c0,16.11-12.966,29.169-34.485,29.169S80.067,235.72,80.067,219.61s17.444-29.169,38.963-29.169S153.515,163.691,153.515,219.61Z" transform="translate(-80.067 -157.608)" fill="#2c293d"/>
            <path id="Path_4205"  d="M153.6,188.745c0,26.77-15.445,48.47-34.5,48.47s-34.5-21.7-34.5-48.47,15.445-40.512,34.5-40.512S153.6,161.976,153.6,188.745Z" transform="translate(-81.254 -148.233)" fill="#2c293d"/>
          </g>
          <rect id="Rectangle_1067"  width="9.926" height="8.774" transform="matrix(-0.996, 0.086, -0.086, -0.996, 164.612, 49.452)" fill="#ffc999"/>
          <g id="Group_3840"  transform="translate(106.051 42.95)">
            <path id="Path_4206"  d="M182.05,159.868c-10.466,0-20.16-4.6-25.564-8.571l4.813-6.543,4.781-6.563c.657.473,16.2,11.459,27.286.8,8.46-8.135,9.327-33.039,7.888-46.825l16.15-1.7c.472,4.454,4.12,43.984-12.782,60.236A31.686,31.686,0,0,1,182.05,159.868Z" transform="translate(-156.486 -90.461)" fill="url(#linear-gradient)"/>
          </g>
          <g id="Group_3847"  transform="translate(0 44.424)">
            <g id="Group_3842"  transform="translate(6.218 18.756)">
              <g id="Group_3841" >
                <path id="Path_4207"  d="M47.45,181.382a18.528,18.528,0,0,1-5.9-.918c-5.4-1.8-9.158-6.163-10.59-12.289-.938-4.015-9.346-45.316-9.7-47.072l15.915-3.239c2.421,11.9,8.868,43.469,9.6,46.613a4.834,4.834,0,0,0,.185.622c1.16.107,6.146-.033,18.185-7.575A157.761,157.761,0,0,0,80.533,146.41l10.431,12.448a171.858,171.858,0,0,1-16.98,12.289C63.037,178.035,54.419,181.382,47.45,181.382Z" transform="translate(-21.252 -117.864)" fill="url(#linear-gradient)"/>
              </g>
            </g>
            <g id="Group_3846"  transform="translate(0 0)">
              <g id="Group_3844"  transform="translate(4.117 14.023)">
                <g id="Group_3843" >
                  <path id="Path_4208"  d="M37.062,127.483A8.857,8.857,0,0,1,30.407,136c-1.846.418-3.445-.275-5.513-.946-4.927-1.6-5.1-5.54-6.149-10.7s.161-9.119,6.157-8.893a24.239,24.239,0,0,1,6.547,1.1c3.545,1.157,5.811,4.945,5.678,8.949Z" transform="translate(-18.406 -112.499)" fill="#ffc999"/>
                  <path id="Path_4209"  d="M31.31,120.743a2.631,2.631,0,0,0,2.3-4.2,21.015,21.015,0,0,0-3.875-3.989c-4.471-3.459-6.31,2.1-8.059,4.73-.856,1.29,2.48-1.191,5.215.521s2.194,2.777,2.194,2.777Z" transform="translate(-19.227 -111.453)" fill="#ffc999"/>
                </g>
              </g>
              <g id="Group_3845"  transform="translate(2.52)">
                <rect id="Rectangle_1068"  width="8.104" height="33.295" rx="1.537" transform="matrix(0.98, -0.197, 0.197, 0.98, 0, 1.726)" fill="#2d2a42"/>
                <path id="Path_4210"  d="M31.934,125.123l-5.721,1.149a1.134,1.134,0,0,1-1.336-.889L18.763,94.966a1.136,1.136,0,0,1,.889-1.337l5.72-1.149a1.135,1.135,0,0,1,1.336.889l6.114,30.417A1.135,1.135,0,0,1,31.934,125.123Z" transform="translate(-16.896 -92.458)" fill="#444065"/>
                <path id="Path_4211"  d="M30.483,120.56l-3.929.79a.8.8,0,0,1-.946-.63L21.2,98.8a.8.8,0,0,1,.629-.945l3.929-.791a.8.8,0,0,1,.946.629l4.406,21.921A.8.8,0,0,1,30.483,120.56Z" transform="translate(-17.537 -93.659)" fill="#aee4f7"/>
                <path id="Path_4212"  d="M32.391,132.828c.176.875-.007,1.65-.41,1.73s-.871-.563-1.047-1.437.007-1.65.41-1.73S32.214,131.953,32.391,132.828Z" transform="translate(-20.071 -102.647)" fill="#aee4f7"/>
                <path id="Path_4213"  d="M32.26,133.036c.124.619-.005,1.166-.29,1.224s-.616-.4-.74-1.017.005-1.166.289-1.224S32.135,132.417,32.26,133.036Z" transform="translate(-20.153 -102.813)" fill="#444065"/>
              </g>
              <path id="Path_4214"  d="M39.693,121.221s-.689-6.141-4.118-9.852-3.67-5.874-5.677-3.85c-.982.991-.418,4.856,1.747,6.775s3.631,6.214,3.631,6.214Z" transform="translate(-17.175 -96.197)" fill="#ffc999"/>
              <path id="Path_4215"  d="M12.847,115.216a2.212,2.212,0,0,1,1.891-2.454c3.917-.587,7.491-.963,7.264,1.191-.177,1.691-3.524,2.649-6.477,3.175a2.275,2.275,0,0,1-2.678-1.912Z" transform="translate(-12.829 -97.653)" fill="#ffc999"/>
              <path id="Path_4216"  d="M14.06,120.621a2.212,2.212,0,0,1,1.891-2.454c3.916-.587,7.49-.963,7.264,1.191-.178,1.691-3.524,2.649-6.477,3.175a2.275,2.275,0,0,1-2.678-1.913Z" transform="translate(-13.147 -99.068)" fill="#ffc999"/>
              <path id="Path_4217"  d="M14.484,126.517a2.211,2.211,0,0,1,1.891-2.453c3.916-.587,7.49-.963,7.264,1.191-.178,1.691-3.524,2.649-6.477,3.175a2.275,2.275,0,0,1-2.678-1.913Z" transform="translate(-13.258 -100.612)" fill="#ffc999"/>
              <path id="Path_4218"  d="M15.5,132.118a2.212,2.212,0,0,1,1.891-2.454c3.917-.587,7.491-.963,7.264,1.192-.177,1.691-3.524,2.649-6.476,3.174a2.275,2.275,0,0,1-2.679-1.912Z" transform="translate(-13.523 -102.078)" fill="#ffc999"/>
            </g>
          </g>
          <path id="Path_4219"  d="M219.712,60.255a.683.683,0,0,1-.6-.661c-.126-5.29-.658-15.641-2.067-16-2.036-.523-1.815,3.6-1.787,7.371.016,2.255-.023,9.279-.023,9.279h0s-3.748-13.616-5.964-13.488c-2.1.121-.914,3.93,0,7.585.9,3.613,2.895,12.128,2.94,12.326a25.3,25.3,0,0,0,.359,2.644,4.455,4.455,0,0,1-1.289-1.27c-1.55-2.364-5.209-3.453-6.305-2.642-2.24,1.656-.183,2.193,2.924,6.031,2.613,3.228,7.147,4.818,8.527,5.244.074.041.145.089.22.124l.154-.013.048.013v-.017l9.891-.838a19.732,19.732,0,0,0,2.11-10.622c1.524-4.89,4.51-15.46,3.25-16.273-1.765-1.141-2.863,2.842-4.032,6.424-.37,1.132-.912,2.747-1.48,4.428a1.1,1.1,0,0,1-1.29.7l-.024-.005a1.09,1.09,0,0,1-.892-1.187c.656-5.5,1.407-14.05.192-14.568-1.933-.825-2.34,3.286-2.886,7.015-.278,1.9-.787,5.131-1.217,7.833a.681.681,0,0,1-.757.568Z" transform="translate(-62.88 -35.231)" fill="#ffc999"/>
          <path id="Path_4233"  d="M157.784,237.559c1.563-37.415-3.223-72.028-4.616-81.119a6.165,6.165,0,0,0-2.257-3.906,39.815,39.815,0,0,0-25.55-8.6,39.784,39.784,0,0,0-25.294,8.4,6.331,6.331,0,0,0-2.441,4.23,543.816,543.816,0,0,0-3.214,80.992S120.888,245.266,157.784,237.559Z" transform="translate(-34.086 -61.5)" fill="#e9eff5"/>
          <g id="Group_3852"  transform="translate(63.442 82.399)">
            <path id="Path_4234"  d="M126.812,146.348c10.516,0,20.162,5.579,27.7,11.424-.037-.254-.073-.507-.106-.732a6.536,6.536,0,0,0-2.256-4.093,38.521,38.521,0,0,0-25.551-9.014,38.477,38.477,0,0,0-25.294,8.807,6.709,6.709,0,0,0-2.441,4.433c-.031.269-.064.566-.1.875C106.354,152.04,116.134,146.348,126.812,146.348Z" transform="translate(-98.767 -143.899)" fill="#444065"/>
          </g>
          <path id="Path_4235"  d="M144.8,147.1a4.067,4.067,0,0,0-.236-1.342,35.473,35.473,0,0,0-12.434-1.823,35.125,35.125,0,0,0-11.949,1.668,4.088,4.088,0,0,0-.3,1.5c0,3.848,5.577,6.967,12.457,6.967S144.8,150.946,144.8,147.1Z" transform="translate(-40.853 -61.5)" fill="#444065"/>
          <g id="Group_3856"  transform="translate(52.135 0)">
            <g id="Group_3853"  transform="translate(0 36.231)">
              <path id="Path_4236"  d="M95.3,86.466s-4.24-7.884-9.959-4.06c-5.134,3.434.882,22.947,9.477,16.8Z" transform="translate(-83.45 -81.36)" fill="#ffc999"/>
              <path id="Path_4237"  d="M94.243,88.022S91.2,81.657,87.164,84.7c-3.62,2.737.785,16.973,6.843,12.072Z" transform="translate(-84.08 -82.019)" fill="#e6b58c"/>
              <path id="Path_4238"  d="M91.532,93.371a2.3,2.3,0,1,0,2.158-2.015A2.1,2.1,0,0,0,91.532,93.371Z" transform="translate(-85.565 -83.975)" fill="#ffc999"/>
              <path id="Path_4239"  d="M87.982,85.188c-2.213,1.674-1.693,7.776.593,11.067C85.861,93.2,84.8,86.494,87.164,84.7a3.4,3.4,0,0,1,4.4-.025A3.315,3.315,0,0,0,87.982,85.188Z" transform="translate(-84.08 -82.019)" fill="#d1a57f"/>
            </g>
            <path id="Path_4240"  d="M178.676,82.407c-5.718-3.825-9.959,4.06-9.959,4.06l.482,12.741C177.794,105.354,183.81,85.841,178.676,82.407Z" transform="translate(-105.771 -45.129)" fill="#e6b58c"/>
            <path id="Path_4241"  d="M124.816,143.238c-.362,2.545,1.111,3.611,3.543,4.444a16.359,16.359,0,0,0,9.742.244c2.611-.749,4.292-1.872,3.909-4.561l-.974-6.849H125.772Z" transform="translate(-94.264 -59.567)" fill="#ffc999"/>
            <path id="Path_4242"  d="M142.158,143.184l-.949-6.668H125.945l-.523,3.676A50.394,50.394,0,0,0,142.158,143.184Z" transform="translate(-94.438 -59.567)" fill="#e6b58c"/>
            <path id="Path_4243"  d="M149.9,56.509c1.779,5.131,2.9,12.17,4.183,18.818,1.245,6.44,4.986,27.807-15.152,35.64s-38.6-3.676-42.478-17.579c-4.367-15.679-2.241-25.371,1.428-35.534,4.827-13.372,15.965-17.889,27.67-18.013C136.821,39.722,146.113,45.231,149.9,56.509Z" transform="translate(-86.214 -34.26)" fill="#ffc999"/>
            <path id="Path_4244"  d="M173.555,80.883s-6.113-13.38-6.1-24.965C167.453,55.918,176.228,62.547,173.555,80.883Z" transform="translate(-105.44 -38.469)" fill="#4d281c"/>
            <path id="Path_4245"  d="M93.423,77.785s9.206-3.744,12.593-26.915c0,0,26.646,8.729,50.868,6.51,0,0-2.077-20.184-27.159-24.362-23.911-3.983-29.628,9.5-29.628,9.5S90.738,50.763,93.423,77.785Z" transform="translate(-85.934 -32.282)" fill="#633424"/>
            <path id="Path_4246"  d="M94.007,44.6a21.744,21.744,0,0,0,6.37,1.139" transform="translate(-86.214 -35.506)" fill="none" stroke="#633424" stroke-miterlimit="10" stroke-width="3"/>
            <path id="Path_4247"  d="M101.217,43.92s-.539-2.659-4-6.268" transform="translate(-87.054 -33.687)" fill="none" stroke="#633424" stroke-miterlimit="10" stroke-width="3"/>
            <path id="Path_4248"  d="M118.484,110.919c1.026,3.778,4.942,13.953,15.917,14.091,12.156.153,14.449-14.609,14.449-14.609C130.916,114.985,118.484,110.919,118.484,110.919Z" transform="translate(-92.621 -52.731)" fill="#fcffff"/>
            <path id="Path_4249"  d="M140.268,93.3s.233,7.7,5.027,8.507c0,0-1.243,3.771-5.024,3.657a7.505,7.505,0,0,0,2.757-3.02S139.079,99.5,140.268,93.3Z" transform="translate(-98.265 -48.256)" fill="#dbb08a"/>
            <path id="Path_4250"  d="M125.66,70.179s-9.184-2.573-14.5,2.54" transform="translate(-90.705 -42.033)" fill="none" stroke="#633424" stroke-miterlimit="10" stroke-width="2"/>
            <path id="Path_4251"  d="M149.808,71.8s7.059-3.118,13.026,1.264" transform="translate(-100.821 -42.345)" fill="none" stroke="#633424" stroke-miterlimit="10" stroke-width="2"/>
            <g id="Group_3854"  transform="translate(21.089 37.475)">
              <path id="Path_4252"  d="M126.914,89.975s-.706-7.421-7.593-6.9-7.3,8.025-7.3,8.025" transform="translate(-112.018 -83.046)" fill="none" stroke="#633424" stroke-miterlimit="10" stroke-width="3.064"/>
            </g>
            <g id="Group_3855"  transform="translate(48.52 37.735)">
              <path id="Path_4253"  d="M162.859,89.763s-.588-6.818-6.916-6.341-6.767,7.371-6.767,7.371" transform="translate(-149.176 -83.398)" fill="none" stroke="#633424" stroke-miterlimit="10" stroke-width="2.814"/>
            </g>
          </g>
          <path id="Path_4254"  d="M102.748,151.392s4.144-4.2,7.781-4.018c0,0-.166,55.384-16.863,74.576,0,0-2.341-2.968-.022-12.464S103.923,188.2,102.748,151.392Z" transform="translate(-33.716 -62.408)" fill="#2c293d"/>
          <path id="Path_4255"  d="M162.633,150.528c-2.472-4.874-6.6-3.252-6.6-3.252s7.179,64.887,18.261,74.582c0,0,1.543-8.058-.38-14.206C173.913,207.652,164.654,174.571,162.633,150.528Z" transform="translate(-50.316 -62.316)" fill="#2c293d"/>
        </g>
      </g>
    </g>
  </g>
</svg>
