<svg xmlns="http://www.w3.org/2000/svg" width="31.848" height="31.821" viewBox="0 0 31.848 31.821">
  <defs>
    <linearGradient id="linear-gradient" x1="0.5" x2="0.5" y2="1">
      <stop offset="0" stop-color="#ff7f00"/>
      <stop offset="1" stop-color="#ff4b00"/>
    </linearGradient>
  </defs>
  <g id="qr-code_2_" transform="translate(0 -0.332)">
    <path id="Path_8334"  d="M77.289,76.679v8.637a.625.625,0,0,0,.625.625h8.637a.625.625,0,0,0,.625-.625V83.679a.624.624,0,1,0-1.249,0v1.013H78.538V77.3h7.388v1.5a.624.624,0,1,0,1.249,0V76.679a.625.625,0,0,0-.625-.625H77.914a.625.625,0,0,0-.625.625Zm0,0" transform="translate(-73.443 -71.955)" fill="url(#linear-gradient)"/>
    <path id="Path_8335"  d="M138.667,136.8a.624.624,0,0,0-.624.624v2.591a.624.624,0,0,0,.624.625h2.591a.625.625,0,0,0,.625-.625v-2.591a.625.625,0,0,0-.625-.624Zm1.967,2.591h-1.342v-1.342h1.342Zm0,0" transform="translate(-131.174 -129.682)" fill="url(#linear-gradient)"/>
    <path id="Path_8336"  d="M86.551,364.344H77.914a.625.625,0,0,0-.625.624v8.637a.625.625,0,0,0,.625.624h8.637a.625.625,0,0,0,.625-.624v-8.637A.625.625,0,0,0,86.551,364.344Zm-.624,8.637H78.538v-7.388h7.388Zm0,0" transform="translate(-73.443 -345.898)" fill="url(#linear-gradient)"/>
    <path id="Path_8337"  d="M367.074,85.94h8.637a.625.625,0,0,0,.624-.625V76.679a.625.625,0,0,0-.624-.625h-8.637a.625.625,0,0,0-.625.625v8.637A.625.625,0,0,0,367.074,85.94ZM367.7,77.3h7.388v7.388H367.7Zm0,0" transform="translate(-348.214 -71.954)" fill="url(#linear-gradient)"/>
    <path id="Path_8338"  d="M376.335,373.606v-8.637a.624.624,0,0,0-.624-.624h-8.637a.625.625,0,0,0-.625.624v8.637a.625.625,0,0,0,.625.624h8.637A.624.624,0,0,0,376.335,373.606Zm-1.249-.625H367.7v-7.388h7.388Zm0,0" transform="translate(-348.214 -345.898)" fill="url(#linear-gradient)"/>
    <path id="Path_8339"  d="M149.432,87.512a.624.624,0,0,0,0-1.249H138.483V75.289a.625.625,0,1,0-1.249,0V86.263h-8.289a.624.624,0,0,0,0,1.249h8.289V98.341a.625.625,0,0,0,1.249,0V87.512Zm0,0" transform="translate(-121.935 -70.634)" fill="url(#linear-gradient)"/>
    <path id="Path_8340"  d="M138.667,429.867h2.591a.625.625,0,0,0,.625-.625v-2.591a.624.624,0,0,0-.625-.624h-2.591a.624.624,0,0,0-.624.624v2.591A.624.624,0,0,0,138.667,429.867Zm.625-2.591h1.342v1.342h-1.342Zm0,0" transform="translate(-131.174 -404.511)" fill="url(#linear-gradient)"/>
    <path id="Path_8341"  d="M430.411,136.8h-2.591a.624.624,0,0,0-.625.624v2.591a.625.625,0,0,0,.625.625h2.591a.625.625,0,0,0,.625-.625v-2.591A.624.624,0,0,0,430.411,136.8Zm-.625,2.591h-1.342v-1.342h1.342Zm0,0" transform="translate(-405.937 -129.682)" fill="url(#linear-gradient)"/>
    <path id="Path_8342"  d="M427.82,429.867h2.591a.625.625,0,0,0,.625-.625v-2.591a.624.624,0,0,0-.625-.624H427.82a.624.624,0,0,0-.625.624v2.591A.625.625,0,0,0,427.82,429.867Zm.625-2.591h1.342v1.342h-1.342Zm0,0" transform="translate(-405.937 -404.511)" fill="url(#linear-gradient)"/>
    <path id="Path_8343"  d="M77.467,307.474l-.034.008a.624.624,0,1,0,.287,1.216l.033-.008a.624.624,0,0,0-.286-1.216Zm0,0" transform="translate(-73.122 -291.842)" fill="url(#linear-gradient)"/>
    <path id="Path_8344"  d="M251.037,167.472l-.034.008a.625.625,0,0,0,.142,1.233.617.617,0,0,0,.143-.017l.033-.008a.625.625,0,0,0-.285-1.216Zm0,0" transform="translate(-238.055 -158.807)" fill="url(#linear-gradient)"/>
    <path id="Path_8345"  d="M.624,5.447a.624.624,0,0,0,.625-.624V1.581H4.373a.624.624,0,1,0,0-1.249H.624A.625.625,0,0,0,0,.957V4.823a.624.624,0,0,0,.624.624Zm0,0" fill="url(#linear-gradient)"/>
    <path id="Path_8346"  d="M543.943.332h-3.748a.624.624,0,1,0,0,1.249h3.124V4.823a.624.624,0,0,0,1.249,0V.957a.625.625,0,0,0-.624-.625Zm0,0" transform="translate(-512.72 0)" fill="url(#linear-gradient)"/>
    <path id="Path_8347"  d="M4.373,540.87H1.249v-3.242a.624.624,0,0,0-1.249,0v3.866a.625.625,0,0,0,.624.625H4.373a.625.625,0,1,0,0-1.249Zm0,0" transform="translate(0 -509.966)" fill="url(#linear-gradient)"/>
    <path id="Path_8348"  d="M543.943,537a.624.624,0,0,0-.625.624v3.242H540.2a.625.625,0,1,0,0,1.249h3.748a.625.625,0,0,0,.624-.625v-3.866A.625.625,0,0,0,543.943,537Zm0,0" transform="translate(-512.72 -509.966)" fill="url(#linear-gradient)"/>
  </g>
</svg>
