<svg xmlns="http://www.w3.org/2000/svg" width="172.948" height="165.771" viewBox="0 0 172.948 165.771">
  <g id="Group_14800"  transform="translate(1304.948 953.885)">
    <g id="Group_14799"  transform="translate(-1304.948 -953.885)">
      <g id="Group_13688"  transform="translate(0 0)">
        <g id="Group_13683"  transform="translate(128.629)">
          <path id="Path_8256"  d="M1785.8,1504.606v72.69a8.16,8.16,0,0,1-8.161,8.158h-28a8.158,8.158,0,0,1-8.158-8.158v-72.69q0-1.447.049-2.887.074-2.182.265-4.358a83.865,83.865,0,0,1,4.25-20.043l10.352-30.057h14.484l10.352,30.057a83.705,83.705,0,0,1,4.254,20.043q.191,2.173.265,4.358Q1785.8,1503.161,1785.8,1504.606Z" transform="translate(-1741.479 -1433.984)" fill="#c0e1eb"/>
          <path id="Path_8257"  d="M1785.8,1575.839v38.673h-44.32v-38.673q0-1.446.049-2.887c0-.144.01-.291.02-.435.046-1.311.131-2.619.245-3.923h43.692q.172,1.957.248,3.923c.007.144.013.291.016.435Q1785.8,1574.394,1785.8,1575.839Z" transform="translate(-1741.479 -1505.218)" fill="#e3f0f5"/>
          <path id="Path_8258"  d="M1785.8,1581.418V1613.7h-44.32v-32.281q0-1.446.049-2.887c0-.144.01-.291.02-.435h44.186c.007.143.013.291.016.435Q1785.8,1579.973,1785.8,1581.418Z" transform="translate(-1741.479 -1510.796)" fill="#4587ba"/>
          <path id="Path_8259"  d="M1789.69,1445.631h-14.95a1.62,1.62,0,0,1-1.62-1.62h0a1.621,1.621,0,0,1,1.62-1.62h14.95a1.621,1.621,0,0,1,1.62,1.62h0A1.62,1.62,0,0,1,1789.69,1445.631Z" transform="translate(-1760.054 -1431.125)" fill="#c0e1eb"/>
          <rect id="Rectangle_2789" width="18.769" height="1.909" rx="0.955" transform="translate(12.776 9.356)" fill="#4587ba"/>
          <rect id="Rectangle_2790" width="15.84" height="1.634" transform="translate(14.24 7.722)" fill="#c0e1eb"/>
          <rect id="Rectangle_2791" width="18.769" height="7.722" rx="3.861" transform="translate(12.776)" fill="#4587ba"/>
          <path id="Path_8260"  d="M1757.932,1499.291a1.308,1.308,0,0,1-1.308-1.308c0-13.434,10.071-42.754,10.5-44a1.308,1.308,0,0,1,2.473.854c-.1.3-10.357,30.145-10.357,43.141A1.308,1.308,0,0,1,1757.932,1499.291Z" transform="translate(-1750.37 -1437.417)" fill="#e3f0f5"/>
          <path id="Path_8261"  d="M1753.93,1718.94a1.308,1.308,0,0,1-1.308-1.308v-31.243a1.308,1.308,0,0,1,2.616,0v31.243A1.308,1.308,0,0,1,1753.93,1718.94Z" transform="translate(-1748.021 -1573.605)" fill="#e3f0f5"/>
          <path id="Path_8262"  d="M1779.844,1617.5h-13.283a8.792,8.792,0,0,1-8.792-8.792h0a8.792,8.792,0,0,1,8.792-8.792h13.283a8.792,8.792,0,0,1,8.792,8.792h0A8.792,8.792,0,0,1,1779.844,1617.5Z" transform="translate(-1751.043 -1523.606)" fill="#e3f0f5"/>
          <path id="Path_8263"  d="M1789.5,1588.611h-18.6a1.211,1.211,0,0,1-1.211-1.211h0a1.211,1.211,0,0,1,1.211-1.211h18.6a1.211,1.211,0,0,1,1.211,1.211h0A1.211,1.211,0,0,1,1789.5,1588.611Z" transform="translate(-1758.041 -1515.547)" fill="#e3f0f5"/>
        </g>
        <g id="Group_13684"  transform="translate(8.266 23.714)">
          <path id="Path_8264"  d="M1521.6,1545.056h103.055l-13.725-16.44H1507.875Z" transform="translate(-1483.97 -1505.461)" fill="#fcb461"/>
          <path id="Path_8265"  d="M1580.573,1568.43h-39.459l9.541,79.438H1653.71l-9.541-79.437h-63.6" transform="translate(-1503.485 -1528.835)" fill="#f0a559"/>
          <path id="Path_8266"  d="M1552.514,1772.954h103.054l4.834-12.142H1557.349Z" transform="translate(-1510.177 -1641.78)" fill="#d8924d"/>
          <path id="Path_8267"  d="M1473.887,1528.616l-13.408,16.44-10.5,79.438,5.994,12.141h36.343l4.834-12.141-9.542-79.438Z" transform="translate(-1449.983 -1505.461)" fill="#d8924d"/>
          <path id="Path_8268"  d="M1492.32,1757.3l4.834-12.142-23.942-11.012-23.229,11.012,5.994,12.142Z" transform="translate(-1449.983 -1626.123)" fill="#c78640"/>
          <path id="Path_8269"  d="M1490.537,1497.756l12,14.378-13.4-6.4-13.734,6.4,12.74-39.6,14.249,19.8,86.981.408,4.209,5.009Z" transform="translate(-1464.909 -1472.539)" fill="#c78640"/>
          <path id="Path_8270"  d="M1522.064,1494.064h90.7c2.721,0,4.472-2.119,3.3-4l-10.879-17.524H1506.26l12.315,19.835A4.1,4.1,0,0,0,1522.064,1494.064Z" transform="translate(-1483.022 -1472.541)" fill="#fcb461"/>
          <ellipse id="Ellipse_913"  cx="22" cy="24.571" rx="22" ry="24.571" transform="translate(65.755 77.979) rotate(-46.582)" fill="#fcb461"/>
        </g>
        <g id="Group_13686"  transform="translate(0 102.6)">
          <path id="Path_8271"  d="M1486.288,1691.748a28.162,28.162,0,0,1-56.323,0c0-.574.018-1.142.052-1.706a28.159,28.159,0,0,1,56.265,1.342C1486.288,1691.5,1486.288,1691.628,1486.288,1691.748Z" transform="translate(-1429.965 -1663.587)" fill="#fa752c"/>
          <g id="Group_13685"  transform="translate(23.984 5.426)">
            <path id="Path_8272"  d="M1488.338,1684.54a38.928,38.928,0,0,0,10.427-1.556.609.609,0,0,0,.448-.487c.049-.405-.392-.581-.752-.65-2.694-.518-8.143-.141-10.332,2.206A.289.289,0,0,0,1488.338,1684.54Z" transform="translate(-1488.05 -1679.613)" fill="#c25a2c"/>
            <path id="Path_8273"  d="M1492.131,1677.2a38.924,38.924,0,0,0,7.812,7.079.61.61,0,0,0,.661.038c.345-.219.2-.671.026-.994-1.306-2.412-5.051-6.389-8.253-6.594A.289.289,0,0,0,1492.131,1677.2Z" transform="translate(-1490.406 -1676.727)" fill="#c25a2c"/>
          </g>
          <path id="Path_8274"  d="M1455.531,1688.335c.878,1.674,2.87,2.412,4.729,2.757s3.832.466,5.44,1.46c1.216.751,2.171,1.974,3.548,2.357a6.5,6.5,0,0,0,2.8-.057l3.617-.605a6.172,6.172,0,0,0,2.469-.784,9.607,9.607,0,0,0,1.973-2.317,3.026,3.026,0,0,1,2.549-1.429c.608.073,1.156.456,1.769.476.656.022,1.273-.377,1.929-.345,1.015.049,1.7,1.09,1.926,2.08a15.762,15.762,0,0,0,.6,2.979c.853,1.9,3.494,3.019,3.335,5.1-.123,1.607-1.854,2.48-3.116,3.482a22.823,22.823,0,0,0-3.045,3.35,51.917,51.917,0,0,1-5.932,5.689,6.356,6.356,0,0,1-1.606,1.12,7.692,7.692,0,0,1-2.337.409c-3.174.29-6.23,1.4-9.4,1.689s-6.745-.443-8.622-3.018a28.336,28.336,0,0,0-2.035-3.155c-1.937-2.025-5.509-1.879-7.222-4.1a6.469,6.469,0,0,1-.891-4.735,21.882,21.882,0,0,0,.43-4.911,25,25,0,0,1-.478-3.246c.044-1.957,1.354-3.627,2.6-5.137C1452.586,1685,1454.292,1685.974,1455.531,1688.335Z" transform="translate(-1440.51 -1676.757)" fill="#ff852a"/>
          <path id="Path_8275"  d="M1486.288,1729.363a28.162,28.162,0,0,1-56.323,0c0-.574.018-1.142.052-1.706,2.573,3.1,5.261,11.825,5.814,13.649.531,1.753,1.167,3.768,2.861,4.462,1.182.485,2.579.163,3.749.676a7.479,7.479,0,0,1,2.024,1.645,12.077,12.077,0,0,0,13.865,1.75,3.167,3.167,0,0,1,1.512-.571,3.283,3.283,0,0,1,.855.176c3.91,1.139,8.206-.167,11.547-2.493s5.907-5.576,8.422-8.779a10.824,10.824,0,0,0,2.367-4.178,8.537,8.537,0,0,1,.478-2.024c.479-.972,1.54-1.5,2.271-2.3a4.156,4.156,0,0,0,.5-.673C1486.288,1729.119,1486.288,1729.243,1486.288,1729.363Z" transform="translate(-1429.965 -1701.202)" fill="#e45d2c"/>
          <path id="Path_8276"  d="M1458.786,1698.483a1.132,1.132,0,0,0,.353.417,3.315,3.315,0,0,1,.589,2.189c.064.771.431,1.69,1.2,1.762.361.034.81-.109,1.032.178.087.112.108.264.191.379a.839.839,0,0,0,.674.238q2.629.1,5.26-.041a2.221,2.221,0,0,0,1.439-.431.63.63,0,0,0,.211-.37.87.87,0,0,0-.165-.515c-.242-.422-.54-.884-1.017-.978a3.209,3.209,0,0,1-.76-.1,1.572,1.572,0,0,1-.5-.55c-.934-1.239-2.894-.934-4.239-1.709-.618-.356-1.084-.931-1.689-1.309C1460.807,1697.3,1458.417,1697.3,1458.786,1698.483Z" transform="translate(-1446.863 -1683.465)" fill="#ff9e37"/>
          <path id="Path_8277"  d="M1500.659,1706.276c-1.712-.207-3.7-.517-4.938.685-.167.561.34,1.111.881,1.336a12.773,12.773,0,0,1,1.658.565c1.3.763,1.585,2.981,3.086,3.108a2.325,2.325,0,0,0,1.855-1.043,6.649,6.649,0,0,1,1.49-1.624,5.927,5.927,0,0,1,2.62-.52,9.454,9.454,0,0,0,4.61-1.715,3.543,3.543,0,0,0,1.648-2.309c.109-.969-.739-2.051-1.692-1.847a3.836,3.836,0,0,1-.483.116,2.067,2.067,0,0,1-.712-.147c-2.3-.655-2.638,1.63-4.142,2.535A9.331,9.331,0,0,1,1500.659,1706.276Z" transform="translate(-1468.551 -1686.587)" fill="#ff9e37"/>
          <path id="Path_8278"  d="M1484.084,1716.5a1.06,1.06,0,0,0,.165.954,1,1,0,0,0,.688.276,1.819,1.819,0,0,0,1.707-1.042,1.216,1.216,0,0,0,.118-.6,1.115,1.115,0,0,0-.814-.914C1484.954,1714.881,1484.291,1715.594,1484.084,1716.5Z" transform="translate(-1461.713 -1693.833)" fill="#ff9e37"/>
          <path id="Path_8279"  d="M1528.524,1698.365a.825.825,0,0,0-.169.38.432.432,0,0,0,.131.381.522.522,0,0,0,.32.1,1.418,1.418,0,0,0,.861-.295.836.836,0,0,0,.284-.308.583.583,0,0,0-.122-.636C1529.393,1697.546,1528.814,1697.97,1528.524,1698.365Z" transform="translate(-1487.726 -1683.674)" fill="#ff9e37"/>
          <path id="Path_8280"  d="M1449.275,1757.544a3.144,3.144,0,0,0,1.893,2.414,1.8,1.8,0,0,0,1.748-.16,2.079,2.079,0,0,0,.6-.933,4.31,4.31,0,0,0,.2-2.374,3.315,3.315,0,0,0-1.267-1.993,2.182,2.182,0,0,0-1.222-.438C1449.62,1754.04,1449.067,1756.289,1449.275,1757.544Z" transform="translate(-1441.277 -1716.702)" fill="#e45d2c"/>
          <path id="Path_8281"  d="M1446.159,1749.411a.84.84,0,0,0,.286.854.768.768,0,0,0,.714.061,1.177,1.177,0,0,0,.546-.49,1.06,1.06,0,0,0,.159-.434.832.832,0,0,0-.333-.74C1446.877,1748.18,1446.294,1748.758,1446.159,1749.411Z" transform="translate(-1439.46 -1713.429)" fill="#e45d2c"/>
          <path id="Path_8282"  d="M1525.427,1762.459c-.2.438-.341,1.026.021,1.344a.88.88,0,0,0,.507.189,2.711,2.711,0,0,0,1.217-.238,8.254,8.254,0,0,0,3.516-2.641,2.931,2.931,0,0,0,.639-1.293,1.305,1.305,0,0,0-.489-1.29,1.549,1.549,0,0,0-.722-.214C1527.757,1758.111,1526.28,1760.587,1525.427,1762.459Z" transform="translate(-1485.891 -1719.195)" fill="#e45d2c"/>
          <path id="Path_8283"  d="M1539.429,1753.4a.48.48,0,0,0,.237.086,1.124,1.124,0,0,0,1.128-.607.662.662,0,0,0,.076-.3c-.012-.528-.774-.7-1.145-.433C1539.44,1752.349,1539.091,1753.135,1539.429,1753.4Z" transform="translate(-1494.148 -1715.504)" fill="#e45d2c"/>
          <path id="Path_8284"  d="M1503.431,1770.461a1.479,1.479,0,0,0,.435,1.173,2.287,2.287,0,0,0,1.128.6,3.211,3.211,0,0,0,2.692-.61,1.982,1.982,0,0,0,.7-.961,1.806,1.806,0,0,0-.786-1.9,3,3,0,0,0-2.512-.39A3.294,3.294,0,0,0,1503.431,1770.461Z" transform="translate(-1473.091 -1725.024)" fill="#e45d2c"/>
          <path id="Path_8285"  d="M1511.241,1763.748a.728.728,0,0,0,.722.448,1.138,1.138,0,0,0,.781-.42.965.965,0,0,0,.262-.788.767.767,0,0,0-.681-.585A1.1,1.1,0,0,0,1511.241,1763.748Z" transform="translate(-1477.655 -1721.599)" fill="#e45d2c"/>
          <path id="Path_8286"  d="M1501.135,1758.829a.382.382,0,0,0,.219.121,1,1,0,0,0,.842-.275c.434-.374.345-1.166-.357-1.041C1501.474,1757.7,1500.852,1758.479,1501.135,1758.829Z" transform="translate(-1471.706 -1718.793)" fill="#e45d2c"/>
          <path id="Path_8287"  d="M1472.5,1669.516c-.221.261-.41.693-.138.9a.544.544,0,0,0,.352.086,6.4,6.4,0,0,0,1.718-.6,17.832,17.832,0,0,1,2.586-.288c1.38-.24,2.646-1.21,4.035-1.031,1.776.229,3.109,2.279,4.876,1.991a10.17,10.17,0,0,1,1.828-.484,3.723,3.723,0,0,1,1.2.356c1.359.523,2.9.558,4.158,1.291a14.7,14.7,0,0,1,2.877,2.855,5.123,5.123,0,0,0,1.25,1,6.923,6.923,0,0,0,2.363.615,1.072,1.072,0,0,0,.481-.008c.4-.132.495-.676.357-1.073-.413-1.193-1.983-1.464-2.869-2.363a8.959,8.959,0,0,1-.848-1.166,8.716,8.716,0,0,0-4.161-2.869c-1.6-.6-3.283-.973-4.867-1.615a6.392,6.392,0,0,0-1.663-.538c-1.264-.14-2.446.627-3.708.785a10.4,10.4,0,0,1-3.4-.453A6.66,6.66,0,0,0,1472.5,1669.516Z" transform="translate(-1454.776 -1665.332)" fill="#ff852a"/>
          <path id="Path_8288"  d="M1537.033,1679.876a.455.455,0,0,0,.415.044.35.35,0,0,0,.171-.3.693.693,0,0,0-.1-.344,1.385,1.385,0,0,0-.343-.416.576.576,0,0,0-.439-.157C1535.995,1678.828,1536.715,1679.708,1537.033,1679.876Z" transform="translate(-1492.459 -1672.458)" fill="#ff852a"/>
          <path id="Path_8289"  d="M1541.116,1684.869a.375.375,0,0,0,.242-.1.407.407,0,0,0,.137-.174.3.3,0,0,0-.181-.365C1540.835,1684.054,1540.694,1684.847,1541.116,1684.869Z" transform="translate(-1495.073 -1675.693)" fill="#ff852a"/>
          <path id="Path_8290"  d="M1466.185,1672.727a.591.591,0,0,0-.2.288.133.133,0,0,0,0,.086.158.158,0,0,0,.142.065,2.059,2.059,0,0,0,.689-.128,3.036,3.036,0,0,0,.932-.406c.1-.077.206-.211.142-.323a.271.271,0,0,0-.173-.105A1.561,1.561,0,0,0,1466.185,1672.727Z" transform="translate(-1451.11 -1668.616)" fill="#ff852a"/>
          <path id="Path_8291"  d="M1499.957,1669.269a.248.248,0,0,0-.086.41,1.563,1.563,0,0,0,1.041.5,4.266,4.266,0,0,0,.636-.086,4.824,4.824,0,0,1,1.709.17,5.133,5.133,0,0,1,1.116.338c.24.114.461.265.705.368a3.99,3.99,0,0,0,1.6.2c.1,0,.222-.02.25-.115a.219.219,0,0,0-.086-.2c-.549-.554-1.431-.619-2.055-1.085a3.233,3.233,0,0,0-.351-.259,1.7,1.7,0,0,0-.418-.146A6.666,6.666,0,0,0,1499.957,1669.269Z" transform="translate(-1470.961 -1666.757)" fill="#ff9e37"/>
          <path id="Path_8292"  d="M1517.991,1675.226a1.173,1.173,0,0,0,.577.057.448.448,0,0,0,.237-.1.206.206,0,0,0,.06-.234c-.078-.159-.446-.175-.6-.152S1517.739,1675.134,1517.991,1675.226Z" transform="translate(-1481.595 -1670.166)" fill="#ff9e37"/>
          <path id="Path_8293"  d="M1523.783,1673.684a.194.194,0,0,0,.218.016c.065-.056.041-.165-.013-.231a.384.384,0,0,0-.254-.141.189.189,0,0,0-.141.032C1523.464,1673.468,1523.7,1673.636,1523.783,1673.684Z" transform="translate(-1484.911 -1669.305)" fill="#ff9e37"/>
          <path id="Path_8294"  d="M1496,1670.652a.151.151,0,0,0,0,.114.177.177,0,0,0,.068.065,1.157,1.157,0,0,0,.518.17.15.15,0,0,0,.08-.009.129.129,0,0,0,.05-.051.275.275,0,0,0-.045-.325.383.383,0,0,0-.232-.094C1496.295,1670.51,1496.063,1670.479,1496,1670.652Z" transform="translate(-1468.728 -1667.652)" fill="#ff9e37"/>
          <path id="Path_8295"  d="M1488.054,1668.3a.107.107,0,0,0-.043.065c0,.048.047.08.091.1a1.393,1.393,0,0,0,.646.091.412.412,0,0,0,.265-.1.053.053,0,0,0,.017-.031.049.049,0,0,0-.01-.03.27.27,0,0,0-.144-.089C1488.608,1668.211,1488.3,1668.1,1488.054,1668.3Z" transform="translate(-1464.042 -1666.287)" fill="#ff9e37"/>
          <path id="Path_8296"  d="M1475.336,1673.742c-.018.029-.035.066-.018.1s.064.036.1.032a1.636,1.636,0,0,0,.311-.076l.5-.156a.846.846,0,0,0,.153-.058c.02-.01.041-.026.04-.048a.061.061,0,0,0-.031-.041A.78.78,0,0,0,1475.336,1673.742Z" transform="translate(-1456.587 -1669.333)" fill="#ff9e37"/>
        </g>
        <g id="Group_13687"  transform="translate(5.373 95.751)">
          <path id="Path_8297"  d="M1574.86,1688.7c-5.891,16.975-25.93,48.566-70.453,48.092s-44.588-52.333-44.588-52.333l3.044-1.949,2.848-1.822s9.862,21.8,34.419,28.054c36.1,9.193,67.927-28.054,67.927-28.054l3.99,4.7Z" transform="translate(-1452.865 -1666.776)" fill="#f4d43b"/>
          <path id="Path_8298"  d="M1574.86,1691.289c-5.891,16.975-25.93,48.566-70.453,48.092s-44.588-52.333-44.588-52.333l3.044-1.949c1.177,2.658,1.508,6.333,2.271,8.613,3,8.927,7.913,17.376,15.184,23.483,12.921,10.844,31.838,12.806,47.858,7.526s29.311-16.971,39.332-30.536c1.52-2.061,2.988-4.173,4.539-6.21Z" transform="translate(-1452.865 -1669.367)" fill="#f4c53b"/>
          <ellipse id="Ellipse_914"  cx="2.095" cy="5.258" rx="2.095" ry="5.258" transform="matrix(0.768, -0.641, 0.641, 0.768, 113.609, 15.229)" fill="#ca7229"/>
          <path id="Path_8299"  d="M1449.931,1664.679l-6.954-10.078,9.135-7.6,3.713,13.909Z" transform="translate(-1442.977 -1646.998)" fill="#ca7229"/>
          <path id="Path_8300"  d="M1512.773,1739.7a28.218,28.218,0,0,0,9.954,1.921c.933-.015,2.11-.308,2.248-1.23a2,2,0,0,0-.941-1.664c-3.773-3.144-8.806-4.188-13.337-6.082-6.716-2.807-12.407-7.539-18.277-11.843-.807-.591-2.462-1.468-2.969-.078-.37,1.014,1.136,2.522,1.671,3.213a48.5,48.5,0,0,0,21.651,15.763Z" transform="translate(-1470.227 -1689.844)" fill="#fce360"/>
          <path id="Path_8301"  d="M1590.284,1759.987a10.86,10.86,0,0,0,6.43.286c2.692-.545,5.425-1.614,7.146-3.755a1.864,1.864,0,0,0,.535-1.434c-.151-.808-1.127-1.129-1.943-1.217-4.3-.461-8.527,1.219-12.422,3.1C1588.563,1757.677,1588.864,1759.374,1590.284,1759.987Z" transform="translate(-1528.742 -1709.695)" fill="#fce360"/>
        </g>
      </g>
    </g>
  </g>
</svg>
