<svg xmlns="http://www.w3.org/2000/svg" width="15.718" height="18.84" viewBox="0 0 15.718 18.84">
  <defs>
    <linearGradient id="linear-gradient" x1="0.5" x2="0.5" y2="1">
      <stop offset="0" stop-color="#ff7f00"/>
      <stop offset="1" stop-color="#ff4b00"/>
    </linearGradient>
  </defs>
  <g id="Group_14787"  transform="translate(2175 1009.42)">
    <path id="Path_14085" d="M91.569,9.075a4.391,4.391,0,0,0,3.208-1.329,4.391,4.391,0,0,0,1.329-3.208,4.391,4.391,0,0,0-1.329-3.208,4.537,4.537,0,0,0-6.417,0,4.391,4.391,0,0,0-1.329,3.208,4.391,4.391,0,0,0,1.329,3.208A4.392,4.392,0,0,0,91.569,9.075ZM89.142,2.11A3.432,3.432,0,0,1,94,2.11,3.28,3.28,0,0,1,95,4.538,3.28,3.28,0,0,1,94,6.965a3.432,3.432,0,0,1-4.855,0,3.28,3.28,0,0,1-1.006-2.428A3.28,3.28,0,0,1,89.142,2.11Zm0,0" transform="translate(-2258.829 -1009.42)" fill="url(#linear-gradient)"/>
    <path id="Path_14086" d="M15.68,252.7a11.209,11.209,0,0,0-.153-1.19,9.38,9.38,0,0,0-.293-1.2,5.914,5.914,0,0,0-.492-1.116,4.208,4.208,0,0,0-.742-.967,3.271,3.271,0,0,0-1.066-.67,3.683,3.683,0,0,0-1.361-.246,1.381,1.381,0,0,0-.738.313c-.221.144-.48.311-.768.5a4.4,4.4,0,0,1-.994.438,3.861,3.861,0,0,1-2.432,0,4.39,4.39,0,0,1-.993-.438c-.286-.183-.545-.349-.769-.5a1.379,1.379,0,0,0-.737-.313,3.679,3.679,0,0,0-1.36.246,3.269,3.269,0,0,0-1.066.67,4.21,4.21,0,0,0-.742.967,5.925,5.925,0,0,0-.492,1.116,9.4,9.4,0,0,0-.293,1.2A11.131,11.131,0,0,0,.037,252.7c-.025.36-.038.734-.038,1.113a3.128,3.128,0,0,0,.929,2.367,3.344,3.344,0,0,0,2.394.873h9.071a3.345,3.345,0,0,0,2.394-.873,3.127,3.127,0,0,0,.929-2.367c0-.38-.013-.754-.038-1.113Zm-1.652,2.68a2.252,2.252,0,0,1-1.633.569H3.323a2.252,2.252,0,0,1-1.633-.569,2.043,2.043,0,0,1-.586-1.567c0-.353.012-.7.035-1.036a10.04,10.04,0,0,1,.138-1.072,8.291,8.291,0,0,1,.257-1.055,4.821,4.821,0,0,1,.4-.908,3.12,3.12,0,0,1,.545-.715,2.17,2.17,0,0,1,.709-.441,2.539,2.539,0,0,1,.869-.168c.039.021.108.06.219.133.227.148.489.317.778.5a5.469,5.469,0,0,0,1.248.558,4.963,4.963,0,0,0,3.111,0,5.475,5.475,0,0,0,1.248-.558c.3-.189.55-.353.777-.5.112-.073.18-.112.219-.132a2.542,2.542,0,0,1,.87.168,2.174,2.174,0,0,1,.709.441,3.111,3.111,0,0,1,.545.715,4.807,4.807,0,0,1,.4.907,8.275,8.275,0,0,1,.258,1.055,10.127,10.127,0,0,1,.138,1.072h0c.023.333.035.682.035,1.036a2.043,2.043,0,0,1-.586,1.567Zm0,0" transform="translate(-2175 -1247.636)" fill="url(#linear-gradient)"/>
  </g>
</svg>
