<svg xmlns="http://www.w3.org/2000/svg" width="40.291" height="37.143" viewBox="0 0 40.291 37.143">
  <g id="Group_13743"  transform="translate(-2266 -786.369)">
    <g id="Group_14758"  transform="translate(2222 624)">
      <g id="school_1_" transform="translate(44 162.369)">
        <g id="Group_13244"  transform="translate(1.871 8.814)">
          <path id="Path_7999"  d="M60.295,159.7H23.781v-17h7.555l10.7-10.7,10.7,10.7h7.554Z" transform="translate(-23.781 -132)" fill="#e6be94"/>
        </g>
        <g id="Group_13245"  transform="translate(16.351 28.959)">
          <rect id="Rectangle_2576"  width="7.555" height="7.555" fill="#996459"/>
        </g>
        <g id="Group_13246"  transform="translate(16.351 26.441)">
          <path id="Path_8000"  d="M215.178,356h-7.24a.157.157,0,0,0-.157.157v2.361h7.555v-2.361A.157.157,0,0,0,215.178,356Z" transform="translate(-207.781 -356)" fill="#4bb9ec"/>
        </g>
        <g id="Group_13247"  transform="translate(19.516 1.259)">
          <path id="Path_8001"  d="M254.423,38.518l1.026-1.539a.63.63,0,0,0-.524-.979h-6.3a.629.629,0,0,0-.63.63v3.777a.629.629,0,0,0,.63.63h6.3a.63.63,0,0,0,.524-.979Z" transform="translate(-248 -36)" fill="#ff4f19"/>
        </g>
        <g id="Group_13249"  transform="translate(19.516)">
          <g id="Group_13248" >
            <path id="Path_8002"  d="M248.63,29.443a.629.629,0,0,1-.63-.63V20.63a.63.63,0,0,1,1.259,0v8.184A.629.629,0,0,1,248.63,29.443Z" transform="translate(-248 -20)" fill="#5c546a"/>
          </g>
        </g>
        <g id="Group_13250"  transform="translate(22.646 11.332)">
          <path id="Path_8003"  d="M287.828,164.389a.629.629,0,0,1,.582-.389h11.961a.63.63,0,0,1,.531.291l4.407,6.925a.629.629,0,0,1-.531.968h-9.443a.629.629,0,0,1-.445-.184l-6.925-6.925A.629.629,0,0,1,287.828,164.389Z" transform="translate(-287.779 -164)" fill="#ff4f19"/>
        </g>
        <g id="Group_13251"  transform="translate(0 11.332)">
          <path id="Path_8004"  d="M17.579,164.389A.629.629,0,0,0,17,164H5.036a.63.63,0,0,0-.531.291L.1,171.216a.629.629,0,0,0,.531.968h9.443a.629.629,0,0,0,.445-.184l6.925-6.925A.629.629,0,0,0,17.579,164.389Z" transform="translate(0 -164)" fill="#ff4f19"/>
        </g>
        <g id="Group_13253"  transform="translate(8.822 8.184)">
          <g id="Group_13252"  transform="translate(0 0)">
            <path id="Path_8005"  d="M134.126,135.952a.627.627,0,0,1-.445-.184l-10.249-10.248-10.248,10.248a.63.63,0,0,1-.89-.89l10.694-10.694a.629.629,0,0,1,.89,0l10.694,10.694a.63.63,0,0,1-.445,1.075Z" transform="translate(-112.109 -123.999)" fill="#e3001e"/>
          </g>
        </g>
        <g id="Group_13254"  transform="translate(16.388 15.754)">
          <circle id="Ellipse_461"  cx="3.757" cy="3.757" r="3.757" transform="translate(0 0)" fill="#ffebb7"/>
        </g>
        <g id="Group_13255"  transform="translate(17.627 16.998)">
          <path id="Path_8006"  d="M226.518,236a.629.629,0,0,0-.63.63v1.259H224.63a.63.63,0,0,0,0,1.259h1.889a.629.629,0,0,0,.63-.63V236.63A.629.629,0,0,0,226.518,236Z" transform="translate(-224 -236)" fill="#5c546a"/>
        </g>
        <g id="Group_13258"  transform="translate(25.811 21.404)">
          <g id="Group_13256"  transform="translate(0.612 0.63)">
            <path id="Path_8007"  d="M338.929,301.574a1.574,1.574,0,1,0-3.116.315h-.032v2.518h3.148v-2.518H338.9A1.578,1.578,0,0,0,338.929,301.574Z" transform="translate(-335.781 -300)" fill="#4bb9ec"/>
          </g>
          <g id="Group_13257" >
            <path id="Path_8008"  d="M330.2,292a2.206,2.206,0,0,0-2.2,2.2v2.833a.629.629,0,0,0,.63.63h3.148a.629.629,0,0,0,.63-.63V294.2A2.206,2.206,0,0,0,330.2,292Zm0,1.259a.945.945,0,0,1,.944.944v.315h-1.889V294.2A.945.945,0,0,1,330.2,293.259Zm-.944,3.148v-.629h1.889v.629Z" transform="translate(-328 -292)" fill="#7e5c62"/>
          </g>
        </g>
        <g id="Group_13261"  transform="translate(10.073 28.959)">
          <g id="Group_13259"  transform="translate(0.68 0.571)">
            <rect id="Rectangle_2577"  width="3.131" height="3.757" transform="translate(0 0)" fill="#4bb9ec"/>
          </g>
          <g id="Group_13260" >
            <path id="Path_8009"  d="M131.777,388H128.63a.629.629,0,0,0-.63.63v3.777a.629.629,0,0,0,.63.63h3.148a.629.629,0,0,0,.63-.63V388.63A.629.629,0,0,0,131.777,388Zm-.63,1.259v.63h-1.889v-.63Zm-1.889,2.518v-.63h1.889v.63Z" transform="translate(-128 -388)" fill="#7e5c62"/>
          </g>
        </g>
        <g id="Group_13264"  transform="translate(4.39 28.959)">
          <g id="Group_13262"  transform="translate(0.63 0.63)">
            <rect id="Rectangle_2578"  width="3.148" height="3.777" fill="#4bb9ec"/>
          </g>
          <g id="Group_13263" >
            <path id="Path_8010"  d="M59.558,388H56.411a.629.629,0,0,0-.63.63v3.777a.629.629,0,0,0,.63.63h3.148a.629.629,0,0,0,.63-.63V388.63A.629.629,0,0,0,59.558,388Zm-.63,1.259v.63H57.04v-.63Zm-1.889,2.518v-.63h1.889v.63Z" transform="translate(-55.781 -388)" fill="#7e5c62"/>
          </g>
        </g>
        <g id="Group_13267"  transform="translate(31.477 28.959)">
          <g id="Group_13265"  transform="translate(0.566 0.571)">
            <rect id="Rectangle_2579"  width="3.131" height="3.757" transform="translate(0 0)" fill="#4bb9ec"/>
          </g>
          <g id="Group_13266" >
            <path id="Path_8011"  d="M403.777,388H400.63a.629.629,0,0,0-.63.63v3.777a.629.629,0,0,0,.63.63h3.148a.629.629,0,0,0,.63-.63V388.63A.629.629,0,0,0,403.777,388Zm-.63,1.259v.63h-1.889v-.63Zm-1.889,2.518v-.63h1.889v.63Z" transform="translate(-400 -388)" fill="#7e5c62"/>
          </g>
        </g>
        <g id="Group_13270"  transform="translate(25.794 28.959)">
          <g id="Group_13268"  transform="translate(0.63 0.63)">
            <rect id="Rectangle_2580"  width="3.148" height="3.777" fill="#4bb9ec"/>
          </g>
          <g id="Group_13269" >
            <path id="Path_8012"  d="M331.558,388h-3.148a.629.629,0,0,0-.63.63v3.777a.629.629,0,0,0,.63.63h3.148a.629.629,0,0,0,.63-.63V388.63A.629.629,0,0,0,331.558,388Zm-.63,1.259v.63H329.04v-.63Zm-1.889,2.518v-.63h1.889v.63Z" transform="translate(-327.781 -388)" fill="#7e5c62"/>
          </g>
        </g>
        <g id="Group_13273"  transform="translate(31.46 21.404)">
          <g id="Group_13271"  transform="translate(0.612 0.63)">
            <path id="Path_8013"  d="M410.711,301.574a1.574,1.574,0,1,0-3.116.315h-.032v2.518h3.148v-2.518h-.032A1.582,1.582,0,0,0,410.711,301.574Z" transform="translate(-407.563 -300)" fill="#4bb9ec"/>
          </g>
          <g id="Group_13272" >
            <path id="Path_8014"  d="M401.984,292a2.206,2.206,0,0,0-2.2,2.2v2.833a.629.629,0,0,0,.63.63h3.148a.629.629,0,0,0,.63-.63V294.2A2.206,2.206,0,0,0,401.984,292Zm0,1.259a.945.945,0,0,1,.944.944v.315H401.04V294.2A.945.945,0,0,1,401.984,293.259Zm-.944,3.148v-.629h1.889v.629Z" transform="translate(-399.781 -292)" fill="#7e5c62"/>
          </g>
        </g>
        <g id="Group_13276"  transform="translate(4.39 21.404)">
          <g id="Group_13274"  transform="translate(0.612 0.63)">
            <path id="Path_8015"  d="M66.711,301.574a1.574,1.574,0,1,0-3.116.315h-.032v2.518h3.148v-2.518h-.032A1.582,1.582,0,0,0,66.711,301.574Z" transform="translate(-63.563 -300)" fill="#4bb9ec"/>
          </g>
          <g id="Group_13275" >
            <path id="Path_8016"  d="M57.984,292a2.206,2.206,0,0,0-2.2,2.2v2.833a.629.629,0,0,0,.63.63h3.148a.629.629,0,0,0,.63-.63V294.2A2.206,2.206,0,0,0,57.984,292Zm0,1.259a.945.945,0,0,1,.944.944v.315H57.04V294.2A.945.945,0,0,1,57.984,293.259Zm-.944,3.148v-.629h1.889v.629Z" transform="translate(-55.781 -292)" fill="#7e5c62"/>
          </g>
        </g>
        <g id="Group_13279"  transform="translate(10.038 21.404)">
          <g id="Group_13277"  transform="translate(0.612 0.63)">
            <path id="Path_8017"  d="M138.492,301.574a1.574,1.574,0,1,0-3.116.315h-.032v2.518h3.148v-2.518h-.032A1.582,1.582,0,0,0,138.492,301.574Z" transform="translate(-135.344 -300)" fill="#4bb9ec"/>
          </g>
          <g id="Group_13278" >
            <path id="Path_8018"  d="M129.766,292a2.206,2.206,0,0,0-2.2,2.2v2.833a.629.629,0,0,0,.63.63h3.148a.629.629,0,0,0,.63-.63V294.2A2.206,2.206,0,0,0,129.766,292Zm0,1.259a.945.945,0,0,1,.944.944v.315h-1.889V294.2A.945.945,0,0,1,129.766,293.259Zm-.944,3.148v-.629h1.889v.629Z" transform="translate(-127.563 -292)" fill="#7e5c62"/>
          </g>
        </g>
        <g id="Group_13280"  transform="translate(15.739 15.109)">
          <path id="Path_8019"  d="M204.407,220.814a4.407,4.407,0,1,1,4.407-4.407A4.412,4.412,0,0,1,204.407,220.814Zm0-7.555a3.148,3.148,0,1,0,3.148,3.148A3.151,3.151,0,0,0,204.407,213.259Z" transform="translate(-200 -212)" fill="#7e5c62"/>
        </g>
        <g id="Group_13281"  transform="translate(15.739 25.811)">
          <path id="Path_8020"  d="M206.925,348h-5.036A1.891,1.891,0,0,0,200,349.889V358.7a.63.63,0,0,0,1.259,0v-6.925h2.5V358.7h1.259v-6.925h2.535V358.7a.63.63,0,0,0,1.259,0v-8.814A1.891,1.891,0,0,0,206.925,348Zm.63,2.518h-6.3v-.63a.63.63,0,0,1,.63-.63h5.036a.63.63,0,0,1,.63.63Z" transform="translate(-200 -348)" fill="#7e5c62"/>
        </g>
        <g id="Group_13283"  transform="translate(0 35.884)">
          <g id="Group_13282"  transform="translate(0 0)">
            <path id="Path_8021"  d="M39.661,477.259H.63A.63.63,0,0,1,.63,476H39.661a.63.63,0,0,1,0,1.259Z" transform="translate(0 -476)" fill="#5c546a"/>
          </g>
        </g>
      </g>
    </g>
  </g>
</svg>
