<svg xmlns="http://www.w3.org/2000/svg" width="18.333" height="20" viewBox="0 0 18.333 20">
  <g id="Group_14826"  transform="translate(1412.25 193)">
    <g id="share" transform="translate(-1412.25 -193)">
      <path id="Path_8105" d="M320.085,18.708A2.708,2.708,0,1,1,317.376,16,2.708,2.708,0,0,1,320.085,18.708Zm0,0" transform="translate(-302.376 -15.375)" fill="#ff7200"/>
      <path id="Path_8106" d="M302,6.667a3.333,3.333,0,1,1,3.333-3.333A3.337,3.337,0,0,1,302,6.667Zm0-5.417a2.083,2.083,0,1,0,2.083,2.083A2.086,2.086,0,0,0,302,1.25Zm0,0" transform="translate(-287.001 0)" fill="#ff7200"/>
      <path id="Path_8107" d="M320.085,360.04a2.708,2.708,0,1,1-2.708-2.708A2.708,2.708,0,0,1,320.085,360.04Zm0,0" transform="translate(-302.376 -343.374)" fill="#ff7200"/>
      <path id="Path_8108" d="M302,348a3.333,3.333,0,1,1,3.333-3.333A3.337,3.337,0,0,1,302,348Zm0-5.417a2.083,2.083,0,1,0,2.083,2.083A2.086,2.086,0,0,0,302,342.582Zm0,0" transform="translate(-287.001 -327.999)" fill="#ff7200"/>
      <path id="Path_8109" d="M21.417,189.376a2.708,2.708,0,1,1-2.708-2.708A2.708,2.708,0,0,1,21.417,189.376Zm0,0" transform="translate(-15.375 -179.376)" fill="#ff7200"/>
      <path id="Path_8110" d="M3.333,177.335A3.333,3.333,0,1,1,6.667,174,3.337,3.337,0,0,1,3.333,177.335Zm0-5.417A2.083,2.083,0,1,0,5.417,174,2.086,2.086,0,0,0,3.333,171.918Zm0,0" transform="translate(0 -164.001)" fill="#ff7200"/>
      <path id="Path_8111" d="M115.183,96.29a.833.833,0,0,1-.413-1.558l7.732-4.408a.833.833,0,1,1,.825,1.448l-7.732,4.408a.828.828,0,0,1-.412.109Zm0,0" transform="translate(-109.882 -86.69)" fill="#ff7200"/>
      <path id="Path_8112" d="M122.936,272.294a.828.828,0,0,1-.412-.109l-7.732-4.408a.833.833,0,0,1,.825-1.448l7.732,4.408a.833.833,0,0,1-.413,1.558Zm0,0" transform="translate(-109.904 -255.819)" fill="#ff7200"/>
    </g>
  </g>
</svg>
