<svg xmlns="http://www.w3.org/2000/svg" width="13.223" height="15.849" viewBox="0 0 13.223 15.849">
  <g id="Group_14839" data-name="Group 14839" transform="translate(3868.375 380.053)">
    <g id="user_7_" data-name="user (7)" transform="translate(-3868.375 -380.053)">
      <path id="Path_8331" data-name="Path 8331" d="M90.849,7.635a3.694,3.694,0,0,0,2.7-1.118,3.694,3.694,0,0,0,1.118-2.7,3.694,3.694,0,0,0-1.118-2.7,3.816,3.816,0,0,0-5.4,0,3.694,3.694,0,0,0-1.118,2.7,3.694,3.694,0,0,0,1.118,2.7A3.7,3.7,0,0,0,90.849,7.635Zm-2.042-5.86a2.888,2.888,0,0,1,4.085,0,2.76,2.76,0,0,1,.846,2.042,2.76,2.76,0,0,1-.846,2.042,2.887,2.887,0,0,1-4.085,0,2.759,2.759,0,0,1-.846-2.042,2.759,2.759,0,0,1,.846-2.042Zm0,0" transform="translate(-84.338 0)" fill="#686868"/>
      <path id="Path_8332" data-name="Path 8332" d="M13.191,251.848a9.43,9.43,0,0,0-.128-1,7.891,7.891,0,0,0-.246-1.007,4.974,4.974,0,0,0-.414-.939,3.54,3.54,0,0,0-.624-.813,2.752,2.752,0,0,0-.9-.563,3.1,3.1,0,0,0-1.145-.207,1.162,1.162,0,0,0-.62.263c-.186.121-.4.262-.646.417a3.7,3.7,0,0,1-.836.368,3.247,3.247,0,0,1-2.046,0A3.693,3.693,0,0,1,4.752,248c-.241-.154-.458-.294-.647-.417a1.161,1.161,0,0,0-.62-.263,3.1,3.1,0,0,0-1.145.207,2.75,2.75,0,0,0-.9.563,3.541,3.541,0,0,0-.624.813,4.983,4.983,0,0,0-.414.939,7.91,7.91,0,0,0-.246,1.007,9.365,9.365,0,0,0-.128,1c-.021.3-.032.618-.032.936a2.632,2.632,0,0,0,.782,1.991,2.814,2.814,0,0,0,2.014.735h7.631a2.814,2.814,0,0,0,2.014-.735,2.631,2.631,0,0,0,.782-1.991c0-.319-.011-.634-.032-.936ZM11.8,254.1a1.894,1.894,0,0,1-1.374.479H2.8a1.894,1.894,0,0,1-1.374-.479,1.719,1.719,0,0,1-.493-1.318c0-.3.01-.59.029-.872a8.446,8.446,0,0,1,.116-.9,6.976,6.976,0,0,1,.217-.888,4.056,4.056,0,0,1,.337-.764,2.624,2.624,0,0,1,.459-.6,1.826,1.826,0,0,1,.6-.371,2.137,2.137,0,0,1,.731-.141c.033.017.09.05.184.111.191.124.411.266.654.422a4.6,4.6,0,0,0,1.05.469,4.175,4.175,0,0,0,2.617,0,4.607,4.607,0,0,0,1.05-.469c.249-.159.463-.3.654-.422.094-.061.152-.094.184-.111a2.138,2.138,0,0,1,.732.141,1.828,1.828,0,0,1,.6.371,2.617,2.617,0,0,1,.459.6,4.043,4.043,0,0,1,.337.763,6.96,6.96,0,0,1,.217.888,8.517,8.517,0,0,1,.116.9h0c.02.28.03.574.03.871A1.718,1.718,0,0,1,11.8,254.1Zm0,0" transform="translate(0 -239.66)" fill="#686868"/>
    </g>
  </g>
</svg>
