<svg xmlns="http://www.w3.org/2000/svg" width="50" height="50" viewBox="0 0 50 50">
  <defs>
    <clipPath id="clip-Artboard_3">
      <rect width="50" height="50"/>
    </clipPath>
  </defs>
  <g id="Artboard_3"  clip-path="url(#clip-Artboard_3)">
    <g id="Group_13736"  transform="translate(4.008 8.318)">
      <path id="Path_8254"  d="M66.816,38.041A17.075,17.075,0,0,1,61.9,39.387a8.581,8.581,0,0,0,3.764-4.734,17.132,17.132,0,0,1-5.434,2.076,8.565,8.565,0,0,0-14.583,7.807,24.293,24.293,0,0,1-17.64-8.943A8.567,8.567,0,0,0,30.654,47.02a8.5,8.5,0,0,1-3.876-1.072c0,.036,0,.073,0,.108a8.563,8.563,0,0,0,6.865,8.391,8.591,8.591,0,0,1-3.864.148,8.567,8.567,0,0,0,7.994,5.943A17.275,17.275,0,0,1,25.1,64.082,24.207,24.207,0,0,0,38.22,67.927c15.741,0,24.349-13.04,24.349-24.35,0-.371-.008-.74-.025-1.107a17.354,17.354,0,0,0,4.271-4.429Z" transform="translate(-25.103 -34.028)" fill="#f1f2f2"/>
    </g>
  </g>
</svg>
