<svg xmlns="http://www.w3.org/2000/svg" width="111.661" height="168.237" viewBox="0 0 111.661 168.237">
  <defs>
    <linearGradient id="linear-gradient" x1="0.5" x2="0.5" y2="1">
      <stop offset="0" stop-color="#ff7f00"/>
      <stop offset="1" stop-color="#ff4b00"/>
    </linearGradient>
  </defs>
  <g id="Group_14833"  transform="translate(4437 601.595)">
    <g id="man" transform="translate(-4515.028 -601.595)">
      <path id="Path_8315"  d="M189.689,151.1v14.233a2.9,2.9,0,0,1-2.9,2.9H80.928a2.9,2.9,0,0,1-2.9-2.9V151.1a27.038,27.038,0,0,1,27.042-27.034,15.011,15.011,0,0,0,12.6-6.837c2.688-4.131,2.411-7.723,2.411-10.626l.054-.134A35.9,35.9,0,0,1,97.967,73.3V72.165a8.942,8.942,0,0,1-9.063-8.9V48.2c-.116-5.246.123-23.746,13.486-36.627,15.538-14.976,40.162-13.751,58-5.739a.727.727,0,0,1-.025,1.334l-4.651,1.914a.726.726,0,0,0,.2,1.392l2.259.243a36.593,36.593,0,0,1,27.089,16.8.778.778,0,0,1-.094.9,21.935,21.935,0,0,0-5.989,15.067V63.268a8.9,8.9,0,0,1-8.9,8.9h-.529V73.3a35.9,35.9,0,0,1-22.169,33.172l.054.134c0,2.819-.3,6.46,2.411,10.626a15.011,15.011,0,0,0,12.6,6.837A27.038,27.038,0,0,1,189.689,151.1Z" transform="translate(0 0)" fill="url(#linear-gradient)"/>
      <path id="Path_8316"  d="M189.689,357.238v14.233a2.9,2.9,0,0,1-2.9,2.9H80.928a2.9,2.9,0,0,1-2.9-2.9V357.238a27.04,27.04,0,0,1,27.04-27.034,15.011,15.011,0,0,0,12.6-6.837,24.885,24.885,0,0,0,32.374,0,15.01,15.01,0,0,0,12.6,6.837A27.04,27.04,0,0,1,189.689,357.238Z" transform="translate(0 -206.134)" fill="url(#linear-gradient)"/>
      <path id="Path_8317"  d="M204.355,27.524a.769.769,0,0,1-.094.892,21.947,21.947,0,0,0-5.988,15.068V63.269c0,4.491-3.384,8.9-9.426,8.9V49.771a17.4,17.4,0,0,0-17.4-17.4H134.467a17.4,17.4,0,0,0-17.4,17.4V72.165a8.942,8.942,0,0,1-9.063-8.9V48.2c-.116-5.246.123-23.746,13.486-36.627,15.537-14.977,40.163-13.751,58-5.738a.726.726,0,0,1-.024,1.333L174.81,9.085a.725.725,0,0,0,.2,1.391l2.259.243a36.577,36.577,0,0,1,27.087,16.805Z" transform="translate(-19.098 0)" fill="#42434d"/>
      <path id="Path_8318"  d="M204.81,130.216a35.892,35.892,0,0,1-35.891,35.891c-18.668,0-35.891-14.513-35.891-37.026V106.688a17.4,17.4,0,0,1,17.4-17.4h36.979a17.4,17.4,0,0,1,17.4,17.4Z" transform="translate(-35.061 -56.917)" fill="#ffebd2"/>
      <path id="Path_8319"  d="M292.629,436.857h-8.7a2.9,2.9,0,0,1,0-5.8h8.7a2.9,2.9,0,0,1,0,5.8Z" transform="translate(-129.405 -274.783)" fill="#fff"/>
      <path id="Path_8320"  d="M160.792,163.371c5.9,3.692,1.248,12.745-5.212,10.152a35.9,35.9,0,0,1-22.553-33.329V116.666a17.325,17.325,0,0,1,3.053-9.849,4.286,4.286,0,0,1,7.823,2.6v23.529A35.629,35.629,0,0,0,160.792,163.371Z" transform="translate(-35.061 -66.895)" fill="#fff3e4"/>
      <path id="Path_8321"  d="M221.27,299.773a35.99,35.99,0,0,1-28.372,0,22.466,22.466,0,0,0,.41-5.953l.054-.134a35.964,35.964,0,0,0,27.444,0l.054.134A22.46,22.46,0,0,0,221.27,299.773Z" transform="translate(-73.226 -187.215)" fill="#ffd6a6"/>
      <path id="Path_8322"  d="M119.677,338.961a14.747,14.747,0,0,1-4.32.667A27.111,27.111,0,0,0,88.179,366.57V369.3a5.075,5.075,0,0,1-5.075,5.076H80.928a2.9,2.9,0,0,1-2.9-2.9V357.238a27.039,27.039,0,0,1,27.04-27.034,15.011,15.011,0,0,0,12.6-6.837,25.092,25.092,0,0,0,3.448,2.473,7.242,7.242,0,0,1-1.443,13.122Z" transform="translate(0 -206.134)" fill="url(#linear-gradient)"/>
      <path id="Path_8323"  d="M262.358,338.961a14.747,14.747,0,0,0,4.32.667,27.111,27.111,0,0,1,27.178,26.942V369.3a5.075,5.075,0,0,0,5.076,5.076h2.175a2.9,2.9,0,0,0,2.9-2.9V357.238a27.039,27.039,0,0,0-27.04-27.034,15.011,15.011,0,0,1-12.6-6.837,25.093,25.093,0,0,1-3.448,2.473,7.242,7.242,0,0,0,1.443,13.122Z" transform="translate(-114.318 -206.134)" fill="url(#linear-gradient)"/>
      <path id="Path_8324"  d="M179.461,7.169c-4.263,1.754-4.87,2.141-6.347,1.912-23.809-3.691-44.7,6.161-51.793,29.288v0a17.315,17.315,0,0,0-4.256,11.4v13.6c0,5.869-9.063,6.277-9.063-.106V48.2c-.116-5.246.123-23.746,13.486-36.627,15.538-14.976,40.162-13.751,58-5.739a.727.727,0,0,1-.025,1.334Z" transform="translate(-19.098 0)" fill="#4d4e59"/>
    </g>
  </g>
</svg>
