<svg xmlns="http://www.w3.org/2000/svg" width="208.918" height="206.028" viewBox="0 0 208.918 206.028">
  <defs>
    <linearGradient id="linear-gradient" x1="0.5" x2="0.5" y2="1">
      <stop offset="0" stop-color="#ff7f00"/>
      <stop offset="1" stop-color="#ff4b00"/>
    </linearGradient>
  </defs>
  <g id="Group_13740"  transform="translate(-2577.817 -40.434)">
    <g id="Group_14754"  transform="translate(125 -293.566)">
      <g id="Group_14753"  transform="translate(2371.093 212.875)">
        <g id="Group_25"  transform="translate(81.724 121.125)">
          <ellipse id="Ellipse_92"  cx="104.459" cy="6.136" rx="104.459" ry="6.136" transform="translate(0 193.757)" fill="#e6e6e6"/>
          <path id="Path_607" d="M383.554,153.259H382.43V122.473a17.818,17.818,0,0,0-17.818-17.818H299.389a17.818,17.818,0,0,0-17.818,17.818V291.365a17.818,17.818,0,0,0,17.818,17.818h65.223a17.818,17.818,0,0,0,17.818-17.818V175.172h1.124Z" transform="translate(-231.58 -104.655)" fill="#3f3d56"/>
          <path id="Path_608" d="M389.749,133.073V301.716a13.307,13.307,0,0,1-13.306,13.307H310.906A13.307,13.307,0,0,1,297.6,301.717V133.073a13.307,13.307,0,0,1,13.306-13.307h7.951a6.325,6.325,0,0,0,5.854,8.709h37.366a6.325,6.325,0,0,0,5.854-8.709h8.512a13.307,13.307,0,0,1,13.307,13.306Z" transform="translate(-242.692 -115.13)" fill="#fff"/>
        </g>
        <g id="Group_1074" transform="translate(147.536 179.749)">
          <path id="secure" d="M56.948,7.1a1.657,1.657,0,0,0-1.2-1.368L35.374.061a1.656,1.656,0,0,0-.888,0L14.109,5.728a1.657,1.657,0,0,0-1.2,1.368c-.118.85-2.814,20.93,4.1,30.919A32.532,32.532,0,0,0,34.541,50.653a1.662,1.662,0,0,0,.778,0A32.531,32.531,0,0,0,52.846,38.015C59.762,28.026,57.066,7.946,56.948,7.1ZM48.07,18.819l-13.9,13.9a1.657,1.657,0,0,1-2.343,0l-8.594-8.594a1.657,1.657,0,0,1,0-2.343l1.706-1.706a1.657,1.657,0,0,1,2.343,0L33,25.791,44.021,14.769a1.656,1.656,0,0,1,2.343,0l1.706,1.706A1.657,1.657,0,0,1,48.07,18.819Z" transform="translate(1.242 0)" fill="url(#linear-gradient)"/>
          <text id="_" transform="translate(33 84.307)" fill="gray" font-size="31" font-family="SegoeUI-Bold, Segoe UI" font-weight="700" letter-spacing="0.052em" opacity="0.91"><tspan x="-30.633" y="0">****</tspan></text>
        </g>
      </g>
    </g>
  </g>
</svg>
