<svg xmlns="http://www.w3.org/2000/svg" width="23.626" height="22.68" viewBox="0 0 23.626 22.68">
  <g id="Group_13749"  transform="translate(-3630 -939.32)">
    <path id="Path_14078"  d="M160.789,22.158l9.419-2.571-.5-1.008a1.327,1.327,0,0,0-1.778-.6L159.5,22.158Z" transform="translate(3474.732 921.48)" fill="#cfcfcf"/>
    <path id="Path_14079"  d="M331.321,86.46a1.327,1.327,0,0,0-.35.048l-2.213.6L322,88.957h11.013l-.414-1.518A1.324,1.324,0,0,0,331.321,86.46Z" transform="translate(3316.543 854.681)" fill="#cfcfcf"/>
    <path id="Path_14080"  d="M20.939,215.56H1.329a1.328,1.328,0,0,0-1.281.979,1.373,1.373,0,0,0-.048.348v14.781a1.327,1.327,0,0,0,1.327,1.327h19.61a1.327,1.327,0,0,0,1.327-1.327v-3.7H14.391a2.257,2.257,0,0,1-2.255-2.255v-2.95a2.252,2.252,0,0,1,2.253-2.253h7.875v-3.622A1.323,1.323,0,0,0,20.939,215.56Z" transform="translate(3630 729.006)" fill="#cfcfcf"/>
    <path id="Path_14081"  d="M502.53,437.109a1.325,1.325,0,0,0-.464-.276,1.353,1.353,0,0,0-.43-.072h-7.909a1.327,1.327,0,0,0-1.327,1.327v2.953a1.327,1.327,0,0,0,1.327,1.327h7.909a1.352,1.352,0,0,0,.43-.072,1.287,1.287,0,0,0,.464-.276,1.322,1.322,0,0,0,.432-.979v-2.953A1.322,1.322,0,0,0,502.53,437.109Zm-6.033,2.719a.664.664,0,0,1-.663.663h-.44a.664.664,0,0,1-.663-.663v-.44a.65.65,0,0,1,.255-.52.67.67,0,0,1,.409-.143h.44a.663.663,0,0,1,.663.663v.44Z" transform="translate(3150.664 513.674)" fill="#cfcfcf"/>
  </g>
</svg>
