<svg xmlns="http://www.w3.org/2000/svg" width="15.368" height="15.372" viewBox="0 0 15.368 15.372">
  <defs>
    <linearGradient id="linear-gradient" x1="0.5" x2="0.5" y2="1">
      <stop offset="0" stop-color="#ff7f00"/>
      <stop offset="1" stop-color="#ff4b00"/>
    </linearGradient>
  </defs>
  <g id="Group_14822"  transform="translate(3975.1 798.103)">
    <g id="Group_14821" >
      <g id="Group_14820"  transform="translate(-3975 -798)">
        <g id="Group_13103" >
          <path id="Path_7963" d="M14.482,7.648V5.516a1.376,1.376,0,0,0-1.269-1.368L11.233.69a1.364,1.364,0,0,0-1.872-.5L2.574,4.137H1.382A1.38,1.38,0,0,0,0,5.516V13.79a1.38,1.38,0,0,0,1.379,1.379H13.1a1.38,1.38,0,0,0,1.379-1.379V11.658a1.033,1.033,0,0,0,.689-.971V8.619A1.033,1.033,0,0,0,14.482,7.648Zm-2.07-3.511h-3L11.66,2.825Zm-1.094-1.91L8.037,4.137H6.676l4.3-2.5ZM9.708.782A.667.667,0,0,1,10.22.713a.676.676,0,0,1,.414.32h0l-5.33,3.1H3.944ZM13.793,13.79a.69.69,0,0,1-.689.689H1.382a.69.69,0,0,1-.689-.689V5.516a.69.69,0,0,1,.689-.689H13.1a.69.69,0,0,1,.689.689V7.585H11.724a2.068,2.068,0,1,0,0,4.137h2.068V13.79Zm.689-3.1a.345.345,0,0,1-.345.345H11.724a1.379,1.379,0,1,1,0-2.758h2.413a.345.345,0,0,1,.345.345Z" transform="translate(-0.003 0)" stroke="#ff5200" stroke-width="0.2" fill="url(#linear-gradient)"/>
          <path id="Path_7964" d="M342.026,277.341a.689.689,0,1,0,.689.689A.69.69,0,0,0,342.026,277.341Z" transform="translate(-330.305 -268.378)" stroke="#ff5200" stroke-width="0.2" fill="url(#linear-gradient)"/>
        </g>
      </g>
    </g>
  </g>
</svg>
